<?xml version="1.0" encoding="UTF-8" standalone="no"?>
<svg
   width="120mm"
   height="170mm"
   viewBox="0 0 453.54331 642.51968"
   version="1.1"
   id="svg18143"
   sodipodi:docname="qc2.svg"
   inkscape:version="1.2.1 (9c6d41e, 2022-07-14)"
   inkscape:export-filename="qc2.jef"
   inkscape:export-xdpi="96"
   inkscape:export-ydpi="96"
   xmlns:inkscape="http://www.inkscape.org/namespaces/inkscape"
   xmlns:sodipodi="http://sodipodi.sourceforge.net/DTD/sodipodi-0.dtd"
   xmlns="http://www.w3.org/2000/svg"
   xmlns:svg="http://www.w3.org/2000/svg"
   xmlns:inkstitch="http://inkstitch.org/namespace">
  <metadata
     id="metadata19157">
    <inkstitch:min_stitch_len_mm>0.2</inkstitch:min_stitch_len_mm>
    <inkstitch:collapse_len_mm>3.0</inkstitch:collapse_len_mm>
    <inkstitch:inkstitch_svg_version>3</inkstitch:inkstitch_svg_version>
  </metadata>
  <defs
     id="defs18147" />
  <sodipodi:namedview
     id="namedview18145"
     pagecolor="#ffffff"
     bordercolor="#000000"
     borderopacity="0.25"
     inkscape:showpageshadow="2"
     inkscape:pageopacity="0.0"
     inkscape:pagecheckerboard="0"
     inkscape:deskcolor="#d1d1d1"
     showgrid="false"
     inkscape:zoom="1.4578621"
     inkscape:cx="258.59786"
     inkscape:cy="323.07583"
     inkscape:current-layer="layer4"
     inkscape:document-units="mm" />
  <!-- 4 colours total:
       #00313a  dark teal
       #f4e2c4  cream
       #e4862f  orange (metal)
       #6bc9d6  aqua (glass)
  -->
  <!-- Cream frame -->
  <!-- Top stem -->
  <!-- Top plate -->
  <!-- GLASS TUBES (aqua, behind wiring) -->
  <!-- METAL RINGS + PIPES + WIRING -->
  <!-- Layer 1 -->
  <!-- Layer 2 -->
  <!-- Layer 3 -->
  <!-- Layer 4 -->
  <!-- Long dangling traces + nodes -->
  <!-- Bottom module -->
  <g
     inkscape:groupmode="layer"
     id="layer3"
     inkscape:label="Layer 1">
    <g
       fill="#6bc9d6"
       opacity="0.55"
       id="g18015"
       transform="matrix(0.650984 0 0 0.650984 -34.4945 -33.9709)">
      <!-- wide central tube -->
      <rect
         x="362"
         y="230"
         width="76"
         height="710"
         rx="32"
         id="rect18005"
         inkstitch:row_spacing_mm="0.25"
         inkstitch:fill_underlay="True"
         inkstitch:fill_method="contour_fill" />
      <!-- flanking tubes -->
      <rect
         x="318"
         y="255"
         width="40"
         height="640"
         rx="20"
         id="rect18007"
         inkstitch:row_spacing_mm="0.25"
         inkstitch:fill_underlay="True"
         inkstitch:fill_method="contour_fill" />
      <rect
         x="442"
         y="255"
         width="40"
         height="640"
         rx="20"
         id="rect18009"
         inkstitch:row_spacing_mm="0.25"
         inkstitch:fill_underlay="True"
         inkstitch:fill_method="contour_fill" />
      <!-- outer skinny tubes -->
      <rect
         x="280"
         y="300"
         width="22"
         height="570"
         rx="11"
         id="rect18011"
         inkstitch:row_spacing_mm="0.25"
         inkstitch:fill_underlay="True"
         inkstitch:fill_method="contour_fill" />
      <rect
         x="498"
         y="300"
         width="22"
         height="570"
         rx="11"
         id="rect18013"
         inkstitch:row_spacing_mm="0.25"
         inkstitch:fill_underlay="True"
         inkstitch:fill_method="contour_fill" />
    </g>
  </g>
  <g
     inkscape:groupmode="layer"
     id="layer4"
     inkscape:label="Layer 2">
    <g
       id="g18482"
       transform="matrix(0.650984 0 0 0.650984 -34.4945 -33.9709)">
      <path
         id="path19115"
         style="color:#000000;fill:#e4862f;stroke-linecap:round;-inkscape-stroke:none"
         d="m 398,80 c -4.432,0 -8,3.568004 -8,8 v 76.08398 c -62.53541,0.42723 -119.00004,4.76434 -160.69141,11.7129 -21.95976,3.65996 -39.81015,7.99192 -52.64843,13.05078 -6.41915,2.52942 -11.60235,5.20444 -15.57422,8.43945 C 157.11406,200.52212 154,204.80661 154,210 c 0,5.19339 3.11406,9.47788 7.08594,12.71289 3.97187,3.23501 9.15507,5.91003 15.57422,8.43945 12.83828,5.05886 30.68867,9.39083 52.64843,13.05078 1.15793,0.19299 2.45045,0.36178 3.63086,0.55079 -11.04595,2.38304 -20.54213,5.00013 -27.90234,7.90039 -5.5445,2.18477 -9.98291,4.49226 -13.29688,7.1914 C 188.42628,262.54486 186,265.96244 186,270 c 0,4.03756 2.42628,7.45514 5.74023,10.1543 3.31397,2.69914 7.75238,5.00663 13.29688,7.1914 11.08899,4.36956 26.64855,8.15366 45.8125,11.34766 1.64207,0.27368 3.45643,0.51675 5.15039,0.78125 V 301 h -20 v 19 a 4,4 0 0 0 4,4 4,4 0 0 0 4,-4 v -11 h 12 v 21 a 4,4 0 0 0 0.77148,2.22852 c -17.71753,3.06139 -32.18923,6.66317 -42.54687,10.82617 -5.2942,2.12787 -9.53819,4.37495 -12.7168,7.01562 C 198.32922,352.711 196,356.06326 196,360 c 0,3.93674 2.32922,7.289 5.50781,9.92969 3.17861,2.64067 7.4226,4.88775 12.7168,7.01562 8.17122,3.28422 18.92327,6.2162 31.77539,8.81446 V 430 a 4,4 0 0 0 4,4 4,4 0 0 0 4,-4 v -42.74609 c 1.32942,0.23905 2.53994,0.49786 3.9082,0.73047 10.03242,1.70551 21.17605,3.20761 33.0918,4.52148 v 38.53906 c -6.61916,0.89273 -13.01465,1.8359 -18.89258,2.88086 -16.43779,2.92228 -29.78999,6.38767 -39.31836,10.39258 -4.76418,2.00245 -8.58501,4.12016 -11.42773,6.58984 C 218.5186,453.3779 216.5,456.46088 216.5,460 c 0,3.53912 2.0186,6.6221 4.86133,9.0918 2.84272,2.46968 6.66355,4.58739 11.42773,6.58984 6.26946,2.63514 14.34085,5.01272 23.71094,7.17969 V 540 a 3.5,3.5 0 0 0 3.5,3.5 3.5,3.5 0 0 0 3.5,-3.5 v -55.60742 c 2.80144,0.57219 5.59404,1.14593 8.60742,1.68164 3.77937,0.67189 7.76135,1.30595 11.85352,1.91601 -0.45303,8.43135 -2.8071,16.87592 -7.0918,25.44532 a 3.5,3.5 0 0 0 1.56641,4.69531 3.5,3.5 0 0 0 4.69531,-1.56641 c 4.56274,-9.12547 7.12752,-18.3707 7.69336,-27.63086 1.88093,0.25432 3.7393,0.51268 5.67578,0.75391 v 51.4707 c -2.2307,0.35955 -4.5193,0.7077 -6.63477,1.08985 -14.15605,2.55721 -25.65682,5.58882 -33.86328,9.09375 -4.10322,1.75246 -7.39359,3.60782 -9.83789,5.76562 C 243.71977,559.26522 242,561.94511 242,565 c 0,3.05489 1.71977,5.73478 4.16406,7.89258 2.4443,2.1578 5.73467,4.01316 9.83789,5.76562 3.14637,1.3438 6.9192,2.59621 10.99805,3.80078 V 587 h -18 v 21 a 3,3 0 0 0 3,3 3,3 0 0 0 3,-3 v -15 h 12 v 47 a 3,3 0 0 0 3,3 3,3 0 0 0 3,-3 v -55.88477 c 5.11473,1.29713 10.68519,2.52033 16.86523,3.63672 6.78976,1.22654 14.2196,2.33167 22.13477,3.31446 v 17.46875 A 2.5,2.5 0 0 0 310,607.5 2.5,2.5 0 0 0 307.5,610 V 737.5 H 292 a 2.5,2.5 0 0 0 -2.5,2.5 2.5,2.5 0 0 0 2.5,2.5 h 15.5 v 50.98047 A 7,7 0 0 0 303,800 a 7,7 0 0 0 4.5,6.51953 V 860 a 2.5,2.5 0 0 0 2.5,2.5 2.5,2.5 0 0 0 2.5,-2.5 V 806.51953 A 7,7 0 0 0 317,800 7,7 0 0 0 312.5,793.46484 V 700 656.59766 A 3,3 0 0 0 315,658 a 3,3 0 0 0 3,-3 v -63.25 c 9.09729,1.02277 18.79507,1.87426 29,2.54297 V 640 a 3,3 0 0 0 3,3 3,3 0 0 0 3,-3 v -45.31055 c 14.07443,0.80447 29.01784,1.24271 44.5,1.28711 V 713.48047 A 7,7 0 0 0 393,720 a 7,7 0 0 0 4.5,6.51953 V 900 h -15 V 766.51953 A 7,7 0 0 0 387,760 7,7 0 0 0 382.5,753.46484 V 600 a 2.5,2.5 0 0 0 -2.5,-2.5 2.5,2.5 0 0 0 -2.5,2.5 V 753.48047 A 7,7 0 0 0 373,760 a 7,7 0 0 0 4.5,6.51953 V 817.5 H 360 a 2.5,2.5 0 0 0 -2.5,2.5 2.5,2.5 0 0 0 2.5,2.5 h 17.5 v 77.90039 C 374.30048,901.44598 372,904.44235 372,908 v 94 c 0,4.432 3.568,8 8,8 h 40 c 4.432,0 8,-3.568 8,-8 v -94 c 0,-3.55765 -2.30048,-6.55402 -5.5,-7.59961 V 822.5 H 440 a 2.5,2.5 0 0 0 2.5,-2.5 2.5,2.5 0 0 0 -2.5,-2.5 H 422.5 V 786.51953 A 7,7 0 0 0 427,780 7,7 0 0 0 422.5,773.46484 V 600 a 2.5,2.5 0 0 0 -2.5,-2.5 2.5,2.5 0 0 0 -2.5,2.5 V 773.48047 A 7,7 0 0 0 413,780 a 7,7 0 0 0 4.5,6.51953 V 900 h -15 V 726.51953 A 7,7 0 0 0 407,720 7,7 0 0 0 402.5,713.46484 V 595.97656 c 15.48216,-0.0444 30.42557,-0.48264 44.5,-1.28711 V 655 a 3,3 0 0 0 3,3 3,3 0 0 0 3,-3 v -60.70703 c 10.20493,-0.66871 19.90271,-1.5202 29,-2.54297 V 640 a 3,3 0 0 0 3,3 3,3 0 0 0 2.5,-1.44531 V 700 793.48047 A 7,7 0 0 0 483,800 a 7,7 0 0 0 4.5,6.51953 V 860 a 2.5,2.5 0 0 0 2.5,2.5 2.5,2.5 0 0 0 2.5,-2.5 V 806.51953 A 7,7 0 0 0 497,800 7,7 0 0 0 492.5,793.46484 V 742.5 H 508 a 2.5,2.5 0 0 0 2.5,-2.5 2.5,2.5 0 0 0 -2.5,-2.5 H 492.5 V 610 a 2.5,2.5 0 0 0 -2.5,-2.5 2.5,2.5 0 0 0 -2,1.29297 v -17.72656 c 7.91517,-0.98279 15.34501,-2.08792 22.13477,-3.31446 6.18004,-1.11639 11.7505,-2.33959 16.86523,-3.63672 V 650 a 3,3 0 0 0 3,3 3,3 0 0 0 3,-3 v -57 h 12 v 15 a 3,3 0 0 0 3,3 3,3 0 0 0 3,-3 v -21 h -18 v -4.54102 c 4.07885,-1.20457 7.85168,-2.45698 10.99805,-3.80078 4.10322,-1.75246 7.39359,-3.60782 9.83789,-5.76562 C 556.28023,570.73478 558,568.05489 558,565 c 0,-3.05489 -1.71977,-5.73478 -4.16406,-7.89258 -2.4443,-2.1578 -5.73467,-4.01316 -9.83789,-5.76562 -0.21577,-0.0922 -0.49063,-0.17608 -0.71094,-0.26758 A 3.5,3.5 0 0 0 543.5,550 v -67.13867 c 9.37009,-2.16697 17.44148,-4.54455 23.71094,-7.17969 4.76418,-2.00245 8.58501,-4.12016 11.42773,-6.58984 C 581.4814,466.6221 583.5,463.53912 583.5,460 c 0,-3.53912 -2.0186,-6.6221 -4.86133,-9.0918 -2.84272,-2.46968 -6.66355,-4.58739 -11.42773,-6.58984 -3.76729,-1.58344 -8.2938,-3.05811 -13.21094,-4.47266 v -54.08593 c 12.85212,-2.59826 23.60417,-5.53024 31.77539,-8.81446 5.2942,-2.12787 9.53819,-4.37495 12.7168,-7.01562 C 601.67078,367.289 604,363.93674 604,360 c 0,-3.93674 -2.32922,-7.289 -5.50781,-9.92969 -3.17861,-2.64067 -7.4226,-4.88775 -12.7168,-7.01562 C 575.57429,338.95461 561.3514,335.40257 544,332.37109 V 309 h 12 v 11 a 4,4 0 0 0 4,4 4,4 0 0 0 4,-4 v -19 h -20 v -1.52539 c 1.69396,-0.2645 3.50832,-0.50757 5.15039,-0.78125 19.16395,-3.194 34.72351,-6.9781 45.8125,-11.34766 5.5445,-2.18477 9.98291,-4.49226 13.29688,-7.1914 C 611.57372,277.45514 614,274.03756 614,270 c 0,-4.03756 -2.42628,-7.45514 -5.74023,-10.1543 -3.31397,-2.69914 -7.75238,-5.00663 -13.29688,-7.1914 -7.36021,-2.90026 -16.85639,-5.51735 -27.90234,-7.90039 1.18041,-0.18901 2.47293,-0.3578 3.63086,-0.55079 21.95976,-3.65995 39.81015,-7.99192 52.64843,-13.05078 6.41915,-2.52942 11.60235,-5.20444 15.57422,-8.43945 C 642.88594,219.47788 646,215.19339 646,210 c 0,-5.19339 -3.11406,-9.47788 -7.08594,-12.71289 -3.97187,-3.23501 -9.15507,-5.91003 -15.57422,-8.43945 -12.83828,-5.05886 -30.68867,-9.39082 -52.64843,-13.05078 C 529.00004,168.84832 472.53541,164.51121 410,164.08398 V 88 c 0,-4.431996 -3.568,-8 -8,-8 z m 89.5,620 A 2.5,2.5 0 0 0 485,697.5 H 462.5 V 600 a 2.5,2.5 0 0 0 -2.5,-2.5 2.5,2.5 0 0 0 -2.5,2.5 V 733.48047 A 7,7 0 0 0 453,740 a 7,7 0 0 0 4.5,6.51953 V 880 a 2.5,2.5 0 0 0 2.5,2.5 2.5,2.5 0 0 0 2.5,-2.5 V 746.51953 A 7,7 0 0 0 467,740 7,7 0 0 0 462.5,733.46484 V 702.5 H 485 a 2.5,2.5 0 0 0 2.5,-2.5 z m -175,0 a 2.5,2.5 0 0 0 2.5,2.5 h 22.5 v 30.98047 A 7,7 0 0 0 333,740 a 7,7 0 0 0 4.5,6.51953 V 880 a 2.5,2.5 0 0 0 2.5,2.5 2.5,2.5 0 0 0 2.5,-2.5 V 746.51953 A 7,7 0 0 0 347,740 7,7 0 0 0 342.5,733.46484 V 600 a 2.5,2.5 0 0 0 -2.5,-2.5 2.5,2.5 0 0 0 -2.5,2.5 v 97.5 H 315 a 2.5,2.5 0 0 0 -2.5,2.5 z M 390,176.08398 V 182 c 0,4.432 3.568,8 8,8 h 4 c 4.432,0 8,-3.568 8,-8 v -5.91602 c 61.99672,0.43014 117.97195,4.75965 158.71875,11.55079 21.4716,3.57859 38.76972,7.86475 50.2207,12.37695 5.7255,2.2561 9.9724,4.60535 12.39453,6.57812 C 633.75613,208.56263 634,209.67056 634,210 c 0,0.32944 -0.24387,1.43737 -2.66602,3.41016 -2.42213,1.97277 -6.66903,4.32202 -12.39453,6.57812 -11.45098,4.5122 -28.7491,8.79836 -50.2207,12.37695 -12.85407,2.14235 -27.3677,4.0091 -42.95313,5.62305 C 520.04119,237.27636 514.11278,236.61329 507.96875,236 H 508 a 4,4 0 0 0 4,-4 4,4 0 0 0 -4,-4 h -22 v 6.07812 c -25.14363,-1.87806 -52.82561,-2.95365 -82,-3.04492 V 210 a 4,4 0 0 0 -4,-4 4,4 0 0 0 -4,4 v 21.0332 c -29.17439,0.0913 -56.85637,1.16686 -82,3.04492 V 228 h -22 a 4,4 0 0 0 -4,4 4,4 0 0 0 4,4 h 0.0312 c -6.14403,0.61329 -12.07244,1.27636 -17.79687,1.98828 -15.58543,-1.61395 -30.09906,-3.4807 -42.95313,-5.62305 -21.4716,-3.57859 -38.76972,-7.86475 -50.2207,-12.37695 -5.7255,-2.2561 -9.9724,-4.60535 -12.39453,-6.57812 C 166.24387,211.43737 166,210.32944 166,210 c 0,-0.32944 0.24387,-1.43737 2.66602,-3.41016 2.42213,-1.97277 6.66903,-4.32202 12.39453,-6.57812 11.45098,-4.5122 28.7491,-8.79836 50.2207,-12.37695 C 272.02805,180.84363 328.00328,176.51412 390,176.08398 Z M 400,239 c 28.371,0 55.39551,0.95493 80.04688,2.6582 C 455.00242,243.14542 428.12828,244 400,244 371.87172,244 344.99758,243.14542 319.95312,241.6582 344.60449,239.95493 371.629,239 400,239 Z m -141.74414,9.27539 c 15.20413,1.84745 31.58927,3.42643 49.13867,4.64453 A 4,4 0 0 0 310,254 a 4,4 0 0 0 1.9375,-0.80273 C 339.26333,254.987 368.89279,256 400,256 c 31.10721,0 60.73667,-1.013 88.0625,-2.80273 A 4,4 0 0 0 490,254 a 4,4 0 0 0 2.60547,-1.08008 c 17.5494,-1.2181 33.93454,-2.79708 49.13867,-4.64453 2.01443,0.3103 4.15179,0.59887 6.08984,0.92188 18.83852,3.13974 34.03315,6.89527 44.19727,10.90039 5.08206,2.00255 8.89497,4.09155 11.17578,5.94922 C 605.48784,267.90455 606,269.20508 606,270 c 0,0.79492 -0.51216,2.09546 -2.79297,3.95312 -2.28081,1.85768 -6.09372,3.94667 -11.17578,5.94922 -10.16412,4.00512 -25.35875,7.76065 -44.19727,10.90039 -1.22012,0.20336 -2.5834,0.38173 -3.83398,0.58008 V 260 a 4,4 0 0 0 -4,-4 4,4 0 0 0 -4,4 v 32.59375 c -12.73587,1.82053 -26.83307,3.38147 -42,4.65625 V 272 h 11 a 4,4 0 0 0 4,-4 4,4 0 0 0 -4,-4 h -11 v -4 a 4,4 0 0 0 -4,-4 4,4 0 0 0 -4,4 v 4 h -32.23047 v -4.44727 A 3.770215,3.770215 0 0 0 450,255.7832 a 3.770215,3.770215 0 0 0 -3.76953,3.76953 V 264 H 440 a 4,4 0 0 0 -3.46484,2 H 363.4375 A 4,4 0 0 0 360,264 h -6 v -4 a 4,4 0 0 0 -4,-4 4,4 0 0 0 -4,4 v 4 h -32 v -4 a 4,4 0 0 0 -4,-4 4,4 0 0 0 -4,4 v 4 h -11 a 4,4 0 0 0 -4,4 4,4 0 0 0 4,4 h 11 v 25.25 c -15.16693,-1.27478 -29.26413,-2.83572 -42,-4.65625 V 260 a 4,4 0 0 0 -4,-4 4,4 0 0 0 -4,4 v 31.38281 c -1.25058,-0.19835 -2.61386,-0.37672 -3.83398,-0.58008 -18.83852,-3.13974 -34.03315,-6.89527 -44.19727,-10.90039 -5.08206,-2.00255 -8.89497,-4.09154 -11.17578,-5.94922 C 194.51216,272.09546 194,270.79492 194,270 c 0,-0.79492 0.51216,-2.09545 2.79297,-3.95312 2.28081,-1.85767 6.09372,-3.94667 11.17578,-5.94922 10.16412,-4.00512 25.35875,-7.76065 44.19727,-10.90039 1.93805,-0.32301 4.07541,-0.61158 6.08984,-0.92188 z M 314,272 h 22.61719 A 4,4 0 0 0 340,274 h 6 v 7 h -6 a 4,4 0 0 0 -4,4 4,4 0 0 0 4,4 h 6 v 7 h -6 a 4,4 0 0 0 -3.86719,3.33008 C 328.5356,298.9243 321.18749,298.43397 314,297.89258 Z m 149.38281,0 H 486 v 25.89258 c -7.16428,0.53964 -14.4891,1.02867 -22.06055,1.43359 A 4,4 0 0 0 460,296 h -6.23047 v -7 H 460 a 4,4 0 0 0 4,-4 4,4 0 0 0 -4,-4 h -6.23047 v -7 H 460 a 4,4 0 0 0 3.38281,-2 z M 354,274 h 92.23047 v 7 H 354 Z m 0,15 h 92.23047 v 7 h -2.78516 A 4,4 0 0 0 440,294 a 4,4 0 0 0 -3.46484,2 H 363.44531 A 4,4 0 0 0 360,294 a 4,4 0 0 0 -3.46484,2 H 354 Z m -90,11.68555 c 12.79413,1.80371 26.90915,3.33594 42,4.59375 v 20.69922 c -15.38665,1.38983 -29.49421,3.12786 -42.2207,5.1289 A 4,4 0 0 0 264,330 Z m 272,0 v 30.38867 c -12.67048,-1.98639 -26.70158,-3.71384 -42,-5.0957 V 305.2793 c 15.09085,-1.25781 29.20587,-2.79004 42,-4.59375 z m -222,5.23633 c 10.25854,0.76624 20.95952,1.38401 32,1.87109 v 15.49023 c -7.50694,0.35594 -14.87178,0.7673 -22,1.26368 V 312 a 4,4 0 0 0 -4,-4 4,4 0 0 0 -4,4 v 13.16016 c -0.67265,0.0528 -1.33135,0.10999 -2,0.16406 z m 172,0 v 19.40234 c -0.66865,-0.0541 -1.32735,-0.11122 -2,-0.16406 V 312 a 4,4 0 0 0 -4,-4 4,4 0 0 0 -4,4 v 12.54688 c -7.2006,-0.50143 -14.6437,-0.91538 -22.23047,-1.27344 v -15.47071 c 11.12204,-0.48841 21.90073,-1.10929 32.23047,-1.88085 z m -39.76953,2.20312 v 14.81836 c -0.74927,-0.03 -1.478,-0.069 -2.23047,-0.0977 v -14.625 c 0.75541,-0.0267 1.47805,-0.0676 2.23047,-0.0957 z M 354,308.13477 c 0.67495,0.0251 1.32264,0.062 2,0.0859 v 14.625 c -0.67472,0.0257 -1.32784,0.0611 -2,0.0879 z m 10,0.3164 c 10.43498,0.29968 21.10092,0.48153 32,0.51563 v 13.06836 c -10.90643,0.0365 -21.58545,0.2203 -32,0.54101 z m 72,0 v 14.125 c -10.41455,-0.32071 -21.09357,-0.50449 -32,-0.54101 V 308.9668 c 10.89908,-0.0341 21.56502,-0.21595 32,-0.51563 z m -39.99023,21.58399 A 4,4 0 0 0 400,334 a 4,4 0 0 0 3.99023,-3.96484 c 14.552,0.0492 28.68343,0.36922 42.30665,0.92187 a 3.770215,3.770215 0 0 0 3.70312,3.43945 3.770215,3.770215 0 0 0 3.64062,-3.11718 c 7.68835,0.36533 15.23469,0.78434 22.51368,1.29687 A 4,4 0 0 0 480,336 a 4,4 0 0 0 3.6875,-2.83398 c 1.52741,0.12052 3.03908,0.24426 4.54492,0.37109 A 4,4 0 0 0 490,334 a 4,4 0 0 0 1.13086,-0.22461 c 16.47024,1.44409 31.52442,3.26582 44.86914,5.39258 V 340 a 4,4 0 0 0 4,4 4,4 0 0 0 3.90234,-3.50781 c 16.41783,2.92813 29.83144,6.34405 38.88868,9.98437 4.82632,1.93983 8.44009,3.9621 10.58984,5.74805 C 595.53061,358.01056 596,359.24232 596,360 c 0,0.75768 -0.46939,1.98944 -2.61914,3.77539 -2.14975,1.78595 -5.76352,3.80822 -10.58984,5.74805 -7.13862,2.86918 -16.93517,5.60779 -28.79102,8.07422 V 350 a 4,4 0 0 0 -4,-4 4,4 0 0 0 -4,4 v 29.11523 c -1.76733,0.32539 -3.40791,0.66927 -5.25,0.98243 -9.61296,1.6342 -20.29675,3.08744 -31.75,4.36328 V 350 a 4,4 0 0 0 -4,-4 4,4 0 0 0 -4,4 v 35.28711 c -13.19474,1.3236 -27.27012,2.42504 -42.21484,3.20898 V 376.08008 A 4,4 0 0 0 459,375 4,4 0 0 0 458.78516,373.7168 V 361.08008 A 4,4 0 0 0 459,360 4,4 0 0 0 458.45117,358 H 464 c 3.2894,0 6,-2.7106 6,-6 v -10 c 0,-3.2894 -2.7106,-6 -6,-6 h -16 c -3.2894,0 -6,2.7106 -6,6 v 10 c 0,1.53228 0.59382,2.93439 1.55469,4 H 356.44531 C 357.40618,354.93439 358,353.53228 358,352 v -10 c 0,-3.2894 -2.7106,-6 -6,-6 h -16 c -3.2894,0 -6,2.7106 -6,6 v 10 c 0,3.2894 2.7106,6 6,6 h 5.40625 a 3.7809601,3.7809601 0 0 0 -0.0898,0.44922 A 4,4 0 0 0 341,360 a 4,4 0 0 0 0.21875,1.09961 v 12.80078 A 4,4 0 0 0 341,375 a 4,4 0 0 0 0.21875,1.09961 v 12.39648 C 326.27262,387.71213 312.19587,386.61082 299,385.28711 V 350 a 4,4 0 0 0 -4,-4 4,4 0 0 0 -4,4 v 34.46094 c -11.45325,-1.27584 -22.13704,-2.72908 -31.75,-4.36328 -1.84209,-0.31316 -3.48267,-0.65704 -5.25,-0.98243 V 350 a 4,4 0 0 0 -4,-4 4,4 0 0 0 -4,4 v 27.59766 c -11.85585,-2.46643 -21.6524,-5.20504 -28.79102,-8.07422 -4.82632,-1.93983 -8.44009,-3.9621 -10.58984,-5.74805 C 204.46939,361.98944 204,360.75768 204,360 c 0,-0.75768 0.46939,-1.98944 2.61914,-3.77539 2.14975,-1.78595 5.76352,-3.80822 10.58984,-5.74805 9.65267,-3.87964 24.11032,-7.52599 42.04102,-10.57422 13.69808,-2.32867 29.46116,-4.31675 46.75,-5.89257 V 340 a 4,4 0 0 0 4,4 4,4 0 0 0 4,-4 v -6.64453 c 0.77163,-0.063 1.53532,-0.12813 2.3125,-0.18945 A 4,4 0 0 0 320,336 a 4,4 0 0 0 3.8457,-3.42383 c 7.24659,-0.51025 14.75772,-0.92858 22.41016,-1.29297 A 4,4 0 0 0 350,334 a 4,4 0 0 0 3.81055,-3.04688 c 13.59004,-0.54993 27.68574,-0.86885 42.19922,-0.91796 z M 336,340 h 16 c 1.14259,0 2,0.85741 2,2 v 10 c 0,1.14259 -0.85741,2 -2,2 h -16 c -1.14259,0 -2,-0.85741 -2,-2 v -10 c 0,-1.14259 0.85741,-2 2,-2 z m 112,0 h 16 c 1.14259,0 2,0.85741 2,2 v 10 c 0,1.14259 -0.85741,2 -2,2 h -16 c -1.14259,0 -2,-0.85741 -2,-2 v -10 c 0,-1.14259 0.85741,-2 2,-2 z m -99.21875,24 h 102.43359 v 7 H 348.78125 Z m 0,15 h 102.43359 v 9.82617 C 434.84904,389.56607 417.74018,390 400,390 c -17.74158,0 -34.85178,-0.43381 -51.21875,-1.17383 z M 546,387.25391 v 50.47851 c -5.55693,-1.34808 -11.50802,-2.63341 -18.10742,-3.80664 -5.93777,-1.0556 -12.40197,-2.00803 -19.0957,-2.9082 A 4,4 0 0 0 509,430 v -37.49414 c 11.91575,-1.31387 23.05938,-2.81597 33.0918,-4.52148 1.36826,-0.23261 2.57878,-0.49142 3.9082,-0.73047 z m -247,6.08007 c 13.22936,1.31411 27.31119,2.39898 42.21875,3.17383 v 29.76367 c -6.064,0.3711 -11.9626,0.79962 -17.71875,1.2793 V 415 a 3.5,3.5 0 0 0 -3.5,-3.5 3.5,3.5 0 0 0 -3.5,3.5 v 13.15039 c -6.0181,0.55907 -11.89732,1.15934 -17.5,1.83203 z m 202,0 v 36.64844 c -5.60268,-0.67269 -11.4819,-1.27296 -17.5,-1.83203 V 415 a 3.5,3.5 0 0 0 -3.5,-3.5 3.5,3.5 0 0 0 -3.5,3.5 v 12.55078 c -5.75491,-0.47957 -11.65221,-0.90826 -17.71484,-1.2793 v -29.76367 c 14.90616,-0.77483 28.98661,-1.85983 42.21484,-3.17383 z m -152.21875,3.50391 C 365.16304,397.57155 382.26702,398 400,398 c 17.73157,0 34.83422,-0.42857 51.21484,-1.16211 v 28.99023 c -2.53622,-0.13304 -5.13387,-0.23999 -7.71484,-0.35351 V 403 a 3.5,3.5 0 0 0 -3.5,-3.5 3.5,3.5 0 0 0 -3.5,3.5 v 22.1543 C 424.70923,424.72484 412.50427,424.5 400,424.5 c -12.50427,0 -24.70923,0.22484 -36.5,0.6543 V 403 a 3.5,3.5 0 0 0 -3.5,-3.5 3.5,3.5 0 0 0 -3.5,3.5 v 22.47461 c -2.58227,0.11357 -5.18126,0.22039 -7.71875,0.35351 z M 400,431.5 c 17.81155,0 34.98093,0.47817 51.21484,1.33789 v 7.58203 a 3.7846849,3.7846849 0 0 0 3.78516,3.7832 3.7846849,3.7846849 0 0 0 3.78516,-3.7832 v -7.1289 c 6.0681,0.37488 11.96665,0.80753 17.71484,1.29101 V 435 a 3.5,3.5 0 0 0 3.5,3.5 3.5,3.5 0 0 0 3.45312,-3.32227 c 15.99806,1.49898 30.5919,3.3969 43.2129,5.64063 16.13573,2.86858 29.14344,6.3012 37.83203,9.95312 4.34429,1.82597 7.59604,3.72533 9.54883,5.42188 1.95279,1.69654 2.45312,2.92749 2.45312,3.80664 0,0.87915 -0.50033,2.1101 -2.45312,3.80664 -1.95279,1.69655 -5.20454,3.59591 -9.54883,5.42188 -5.38112,2.26175 -12.58652,4.41807 -20.99805,6.42968 V 450 a 3.5,3.5 0 0 0 -3.5,-3.5 3.5,3.5 0 0 0 -3.5,3.5 v 27.25586 c -3.15291,0.66167 -6.38332,1.31233 -9.83398,1.92578 -3.35896,0.59715 -6.93196,1.15625 -10.55469,1.70508 0.59546,-8.0584 2.92504,-16.13328 7.01953,-24.32227 a 3.5,3.5 0 0 0 -1.56641,-4.69531 3.5,3.5 0 0 0 -2.67187,-0.18945 3.5,3.5 0 0 0 -2.02344,1.75586 c -4.69488,9.38974 -7.25367,18.90642 -7.7168,28.43554 -1.86334,0.25503 -3.73077,0.50975 -5.65234,0.75196 V 450 a 3.5,3.5 0 0 0 -3.5,-3.5 3.5,3.5 0 0 0 -3.5,3.5 v 33.46094 c -10.31483,1.17446 -21.36501,2.1566 -33,2.9414 V 450 a 3.5,3.5 0 0 0 -3.5,-3.5 3.5,3.5 0 0 0 -3.5,3.5 v 36.85938 C 438.72706,487.90909 419.7653,488.5 400,488.5 c -19.7653,0 -38.72706,-0.59091 -56.5,-1.64062 V 450 a 3.5,3.5 0 0 0 -3.5,-3.5 3.5,3.5 0 0 0 -3.5,3.5 v 36.40234 c -11.63499,-0.7848 -22.68517,-1.76694 -33,-2.9414 V 450 a 3.5,3.5 0 0 0 -3.5,-3.5 3.5,3.5 0 0 0 -3.5,3.5 v 32.62305 c -1.92157,-0.24221 -3.789,-0.49693 -5.65234,-0.75196 -0.46313,-9.52912 -3.02192,-19.0458 -7.7168,-28.43554 a 3.5,3.5 0 0 0 -2.02344,-1.75586 3.5,3.5 0 0 0 -2.67187,0.18945 3.5,3.5 0 0 0 -1.56641,4.69531 c 4.09449,8.18899 6.42407,16.26387 7.01953,24.32227 -3.62273,-0.54883 -7.19573,-1.10793 -10.55469,-1.70508 -3.45066,-0.61345 -6.68107,-1.26411 -9.83398,-1.92578 V 450 a 3.5,3.5 0 0 0 -3.5,-3.5 3.5,3.5 0 0 0 -3.5,3.5 v 25.6582 c -8.41153,-2.01161 -15.61693,-4.16793 -20.99805,-6.42968 -4.34429,-1.82597 -7.59603,-3.72533 -9.54883,-5.42188 C 224.00034,462.1101 223.5,460.87915 223.5,460 c 0,-0.87915 0.50034,-2.1101 2.45312,-3.80664 1.9528,-1.69655 5.20454,-3.59591 9.54883,-5.42188 8.68859,-3.65192 21.6963,-7.08454 37.83203,-9.95312 5.49652,-0.97716 11.47836,-1.86591 17.66602,-2.71094 V 440 a 4,4 0 0 0 4,4 4,4 0 0 0 4,-4 v -2.95508 c 5.61656,-0.68211 11.48808,-1.29949 17.54688,-1.86719 A 3.5,3.5 0 0 0 320,438.5 3.5,3.5 0 0 0 323.5,435 v -0.41797 c 6.15288,-0.51752 12.46855,-0.98221 18.98633,-1.375 a 3.7809601,3.7809601 0 0 0 2.51367,1 3.7809601,3.7809601 0 0 0 2.86719,-1.32617 C 364.36566,431.99019 381.85768,431.5 400,431.5 Z m -50,25 a 3.5,3.5 0 0 0 -3.5,3.5 3.5,3.5 0 0 0 3.5,3.5 h 100 a 3.5,3.5 0 0 0 3.5,-3.5 3.5,3.5 0 0 0 -3.5,-3.5 z m 186.5,27.89258 v 64.1914 c -7.23812,-2.35942 -16.07636,-4.4773 -26.36523,-6.33593 -2.18639,-0.39496 -4.54805,-0.7542 -6.85743,-1.125 A 3.5,3.5 0 0 0 503.5,540 v -50.3125 c 1.93648,-0.24123 3.79485,-0.49959 5.67578,-0.75391 0.56584,9.26016 3.13062,18.50539 7.69336,27.63086 a 3.5,3.5 0 0 0 4.69531,1.56641 3.5,3.5 0 0 0 1.56641,-4.69531 c -4.2847,-8.5694 -6.63877,-17.01397 -7.0918,-25.44532 4.09217,-0.61006 8.07415,-1.24412 11.85352,-1.91601 3.01338,-0.53571 5.80598,-1.10945 8.60742,-1.68164 z m -233,6.11133 c 10.34913,1.16623 21.38945,2.14197 33,2.91797 v 43.04101 c -4.62492,0.37434 -9.12396,0.78665 -13.5,1.23828 V 526 a 3,3 0 0 0 -3,-3 3,3 0 0 0 -3,3 v 12.35938 c -4.66609,0.53341 -9.18044,1.10445 -13.5,1.72265 z m 193,0 V 540 a 3.5,3.5 0 0 0 0.0176,0.0859 C 492.1927,539.46679 487.67236,538.8935 483,538.35938 V 526 a 3,3 0 0 0 -3,-3 3,3 0 0 0 -3,3 v 11.70117 c -4.37604,-0.45163 -8.87508,-0.86394 -13.5,-1.23828 v -43.04101 c 11.61055,-0.776 22.65087,-1.75174 33,-2.91797 z m -153,3.37304 c 17.79697,1.04118 36.75173,1.62305 56.5,1.62305 19.74827,0 38.70303,-0.58187 56.5,-1.62305 v 42.0625 c -4.41214,-0.31109 -8.90469,-0.5898 -13.5,-0.82812 V 520 a 3,3 0 0 0 -3,-3 3,3 0 0 0 -3,3 v 14.83203 C 425.11841,534.30803 412.77299,534 400,534 c -12.77299,0 -25.11841,0.30803 -37,0.83203 V 520 a 3,3 0 0 0 -3,-3 3,3 0 0 0 -3,3 v 15.11133 c -4.59531,0.23832 -9.08786,0.51703 -13.5,0.82812 z M 400,540 c 12.86154,0 25.28634,0.31608 37.22852,0.85156 A 3,3 0 0 0 440,543 a 3,3 0 0 0 2.70312,-1.89453 c 4.70006,0.24425 9.29428,0.52924 13.79688,0.84961 V 550 a 3.5,3.5 0 0 0 3.5,3.5 3.5,3.5 0 0 0 3.5,-3.5 v -7.51172 c 4.89077,0.39956 9.62375,0.84652 14.22266,1.33203 A 3,3 0 0 0 480,545 a 3,3 0 0 0 1.82617,-0.72852 c 9.87116,1.11799 19.0721,2.40498 27.24219,3.88086 7.28364,1.31576 13.77286,2.77116 19.42773,4.31446 A 3,3 0 0 0 527,555 v 22.93555 c -5.30101,1.3933 -11.28507,2.71143 -17.93164,3.91211 -6.44929,1.16503 -13.53639,2.21593 -21.06836,3.16211 V 555 a 3,3 0 0 0 -3,-3 3,3 0 0 0 -3,3 v 30.71094 c -9.06784,1.03 -18.77329,1.89005 -29,2.5664 V 555 a 3,3 0 0 0 -3,-3 3,3 0 0 0 -3,3 v 33.67383 c -14.05923,0.81131 -29.0067,1.25777 -44.50391,1.30273 A 2.5,2.5 0 0 0 400,587.5 a 2.5,2.5 0 0 0 -2.49023,2.47656 C 382.01045,589.9317 367.06102,589.48525 353,588.67383 V 555 a 3,3 0 0 0 -3,-3 3,3 0 0 0 -3,3 v 33.27734 c -10.22671,-0.67635 -19.93216,-1.5364 -29,-2.5664 V 555 a 3,3 0 0 0 -3,-3 3,3 0 0 0 -3,3 v 30.00977 c -7.53197,-0.94618 -14.61907,-1.99708 -21.06836,-3.16211 C 284.28507,580.64698 278.30101,579.32885 273,577.93555 V 555 a 3,3 0 0 0 -1.4375,-2.55078 c 5.64056,-1.53693 12.11234,-2.98597 19.36914,-4.29688 1.77212,-0.32012 3.70984,-0.60961 5.56836,-0.91406 V 550 a 3.5,3.5 0 0 0 3.5,3.5 3.5,3.5 0 0 0 3.5,-3.5 v -3.86133 c 4.65909,-0.67555 9.58493,-1.29083 14.67383,-1.86719 A 3,3 0 0 0 320,545 a 3,3 0 0 0 2.27734,-1.17969 c 4.90978,-0.51833 9.96002,-0.99588 15.20118,-1.41601 A 3.5,3.5 0 0 0 340,543.5 a 3.5,3.5 0 0 0 2.79102,-1.49805 c 4.72479,-0.34102 9.5619,-0.63956 14.50586,-0.89648 A 3,3 0 0 0 360,543 a 3,3 0 0 0 2.77148,-2.14844 C 374.71366,540.31608 387.13846,540 400,540 Z M 267.32422,553.70898 A 3,3 0 0 0 267,555 v 21.19531 c -3.21027,-0.9942 -6.19154,-2.0087 -8.64062,-3.05469 -3.74018,-1.59739 -6.53945,-3.25843 -8.22461,-4.74609 C 248.44959,566.90687 248,565.8111 248,565 c 0,-0.8111 0.44959,-1.90687 2.13477,-3.39453 1.68516,-1.48766 4.48443,-3.14869 8.22461,-4.74609 2.52892,-1.08009 5.62553,-2.12589 8.96484,-3.1504 z m 265.38281,0.01 c 3.32675,1.02158 6.41241,2.06384 8.93359,3.14063 3.74019,1.5974 6.53945,3.25843 8.22461,4.74609 C 551.55041,563.09313 552,564.1889 552,565 c 0,0.8111 -0.44959,1.90687 -2.13477,3.39453 -1.68516,1.48766 -4.48442,3.1487 -8.22461,4.74609 -2.44907,1.04599 -5.43035,2.06049 -8.64062,3.05469 V 555 a 3,3 0 0 0 -0.29297,-1.28125 z"
         inkstitch:row_spacing_mm="0.25"
         inkstitch:fill_underlay="True"
         inkstitch:fill_method="contour_fill" />
    </g>
  </g>
</svg>
