<svg id="svg" version="1.1" xmlns="http://www.w3.org/2000/svg" xmlns:xlink="http://www.w3.org/1999/xlink" width="400" height="600" viewBox="0, 0, 400,600"><g id="svgg"><path id="path0" d="M0.000 300.000 L 0.000 600.000 200.000 600.000 L 400.000 600.000 400.000 300.000 L 400.000 0.000 200.000 0.000 L 0.000 0.000 0.000 300.000 M264.974 59.188 C 275.618 62.828,284.084 74.515,285.403 87.388 C 285.627 89.570,285.836 90.092,286.836 90.968 C 289.841 93.597,290.468 94.672,291.183 98.428 C 291.754 101.425,294.897 105.823,302.025 113.600 C 309.394 121.640,309.784 122.569,308.221 128.362 L 307.374 131.500 309.839 135.244 C 311.195 137.304,312.494 139.304,312.726 139.690 C 313.129 140.361,313.346 140.353,317.713 139.498 C 327.302 137.623,332.723 142.130,333.476 152.605 L 333.705 155.795 336.482 158.062 C 355.211 173.350,357.326 175.790,356.797 181.491 C 356.567 183.962,356.642 184.404,357.628 186.343 C 360.034 191.074,367.995 208.810,368.059 209.579 C 368.219 211.510,364.549 216.704,362.574 217.340 C 355.038 219.770,355.378 219.874,352.249 214.193 C 350.848 211.651,348.568 207.549,347.183 205.078 C 338.896 190.297,339.499 191.659,339.996 188.854 C 340.262 187.349,340.206 187.226,338.731 186.120 C 337.883 185.482,334.106 182.189,330.338 178.802 L 323.488 172.643 316.964 173.822 C 313.376 174.470,310.389 175.000,310.326 175.000 C 310.145 175.000,309.424 178.909,309.217 181.007 C 309.034 182.864,309.114 183.042,312.343 187.882 C 315.086 191.994,315.642 193.082,315.567 194.196 C 315.489 195.347,315.982 196.218,318.969 200.203 C 327.103 211.060,332.812 219.356,332.808 220.312 C 332.806 220.849,331.930 222.541,330.863 224.071 L 328.921 226.853 325.698 227.662 C 321.282 228.771,321.865 229.267,311.335 215.430 C 303.080 204.581,302.016 203.333,301.118 203.438 C 300.255 203.540,299.583 202.892,296.261 198.751 C 294.141 196.108,291.144 192.594,289.601 190.943 C 285.417 186.465,285.600 187.593,286.144 169.637 L 286.443 159.783 285.423 158.309 C 284.862 157.499,283.474 155.820,282.338 154.578 L 280.273 152.321 277.642 152.973 C 274.460 153.762,272.124 153.128,270.503 151.037 C 269.977 150.359,268.357 148.214,266.903 146.270 C 259.907 136.920,254.255 130.469,253.061 130.469 C 251.275 130.469,249.810 129.497,247.916 127.054 C 246.956 125.817,245.564 124.224,244.822 123.513 L 243.472 122.222 239.803 122.868 C 232.350 124.179,225.303 122.350,220.313 117.809 L 219.336 116.921 200.391 121.137 C 179.060 125.884,168.031 128.381,166.016 128.920 C 164.993 129.193,164.410 129.706,163.703 130.951 C 163.184 131.868,160.660 135.915,158.096 139.946 C 154.337 145.855,153.480 147.462,153.676 148.241 C 154.145 150.111,168.371 191.795,181.072 228.516 C 185.419 241.084,189.527 253.037,190.200 255.078 C 191.956 260.406,191.234 260.015,197.519 259.037 C 207.518 257.481,211.297 258.556,219.873 265.397 C 241.585 282.714,241.611 326.500,219.912 332.589 L 217.491 333.268 214.647 339.193 C 211.173 346.431,203.918 363.490,202.946 366.705 C 202.737 367.396,203.029 367.988,204.276 369.405 C 206.808 372.281,207.136 374.007,206.961 383.534 C 206.780 393.344,205.641 396.524,201.547 398.641 L 200.475 399.195 200.246 405.555 C 199.587 423.887,199.629 428.889,200.446 429.326 C 201.243 429.753,225.020 439.763,232.813 442.953 C 243.287 447.241,243.145 447.013,242.868 459.045 C 242.581 471.488,243.383 470.696,221.875 479.760 C 219.834 480.621,212.891 483.662,206.445 486.518 C 156.019 508.869,158.643 507.813,153.527 507.813 C 147.748 507.813,140.148 504.332,102.344 484.371 C 95.116 480.555,78.597 471.971,67.383 466.206 C 54.498 459.581,55.404 460.956,55.554 448.242 C 55.704 435.475,55.182 436.163,68.164 431.640 C 71.387 430.518,79.385 427.681,85.938 425.337 C 92.490 422.993,99.099 420.632,100.624 420.090 L 103.397 419.105 103.619 408.283 L 103.842 397.461 101.673 395.342 C 97.552 391.317,96.195 383.949,97.622 373.348 C 98.490 366.892,104.293 361.773,113.222 359.585 L 115.855 358.939 116.973 354.763 C 117.588 352.465,119.473 345.664,121.162 339.648 L 124.232 328.711 123.066 325.586 C 118.893 314.410,118.872 300.747,123.014 291.612 C 125.553 286.011,129.226 281.872,134.352 278.834 C 136.165 277.759,138.214 276.448,138.905 275.922 L 140.160 274.964 133.519 255.353 C 129.866 244.567,122.433 222.559,117.001 206.445 C 105.498 172.324,105.063 171.047,104.737 170.436 C 104.601 170.181,103.055 169.255,101.301 168.377 C 96.495 165.971,96.226 165.617,93.427 157.966 L 90.982 151.283 87.729 149.671 C 74.754 143.241,69.231 122.237,76.554 107.168 C 77.633 104.949,78.516 102.849,78.516 102.503 C 78.516 99.270,86.056 90.520,90.716 88.344 C 95.516 86.104,114.796 81.429,127.344 79.462 C 132.510 78.653,143.557 79.678,146.566 81.247 L 148.155 82.075 152.886 80.892 C 155.488 80.242,164.209 78.131,172.266 76.202 C 180.322 74.273,189.111 72.168,191.797 71.524 C 194.482 70.880,203.529 68.666,211.900 66.605 C 233.632 61.252,238.981 60.076,240.290 60.364 C 240.921 60.502,243.879 60.160,247.045 59.581 C 257.871 57.604,260.194 57.553,264.974 59.188 M260.395 60.667 C 268.939 63.939,275.417 71.377,278.537 81.499 C 279.620 85.009,279.647 85.056,281.615 86.681 L 283.303 88.074 283.031 86.322 C 281.154 74.247,273.320 64.209,263.281 61.018 C 259.422 59.791,257.497 59.557,260.395 60.667 M250.651 62.240 C 253.550 63.948,255.897 65.676,260.512 69.501 C 263.002 71.564,266.541 74.418,268.377 75.843 C 270.213 77.268,272.756 79.322,274.029 80.408 C 276.861 82.824,276.910 82.786,275.453 79.320 C 270.792 68.227,262.728 61.824,252.930 61.436 L 249.023 61.281 250.651 62.240 M234.766 63.054 C 234.766 63.144,235.864 63.585,237.207 64.034 C 257.155 70.707,263.058 104.757,246.616 118.310 L 245.141 119.526 246.487 119.140 C 252.366 117.454,258.431 111.522,261.598 104.360 C 268.266 89.283,259.060 67.460,244.408 63.614 C 241.988 62.978,234.766 62.559,234.766 63.054 M226.470 65.993 C 206.078 72.512,206.304 109.098,226.797 118.974 C 249.932 130.124,264.529 90.326,244.339 71.148 C 238.785 65.872,232.511 64.062,226.470 65.993 M212.500 68.793 C 201.264 71.622,177.636 77.380,161.914 81.121 C 142.336 85.779,139.303 86.511,135.035 87.606 L 131.594 88.489 133.442 89.850 C 134.458 90.598,135.502 91.372,135.762 91.570 C 136.064 91.800,138.746 91.332,143.215 90.269 C 147.054 89.356,154.678 87.572,160.156 86.303 C 165.635 85.035,176.182 82.583,183.594 80.855 C 191.006 79.127,200.674 76.918,205.078 75.946 C 212.300 74.353,213.163 74.077,213.867 73.133 C 214.297 72.557,215.687 70.984,216.956 69.637 C 218.226 68.290,219.105 67.206,218.910 67.228 C 218.714 67.250,215.830 67.954,212.500 68.793 M257.813 69.720 C 257.813 69.850,258.511 70.881,259.365 72.012 C 261.549 74.905,263.849 80.019,265.019 84.584 C 266.002 88.420,266.049 88.505,268.262 90.424 C 269.497 91.495,271.036 92.912,271.682 93.573 L 272.856 94.775 276.369 93.882 C 278.302 93.391,280.981 92.872,282.324 92.730 C 285.469 92.395,285.801 92.856,277.757 86.393 C 273.924 83.314,268.944 79.183,266.691 77.214 C 258.925 70.425,257.813 69.486,257.813 69.720 M196.680 79.673 C 188.516 81.558,174.102 84.882,164.648 87.061 C 133.883 94.152,136.500 93.352,137.841 95.252 C 142.163 101.376,145.639 115.291,144.760 122.949 C 144.623 124.145,144.679 125.000,144.894 125.000 C 145.098 125.000,151.208 123.608,158.472 121.907 C 165.736 120.206,174.932 118.073,178.906 117.167 C 182.881 116.261,191.582 114.239,198.242 112.673 C 204.902 111.106,211.011 109.704,211.816 109.556 C 212.622 109.409,213.281 109.244,213.281 109.190 C 213.281 109.136,212.762 107.947,212.127 106.548 C 208.335 98.184,207.919 85.940,211.176 78.575 C 211.690 77.415,212.109 76.399,212.109 76.319 C 212.109 76.104,212.731 75.969,196.680 79.673 M127.344 81.840 C 125.303 82.121,121.303 82.806,118.454 83.362 C 115.606 83.919,113.145 84.379,112.986 84.385 C 112.826 84.390,113.835 84.947,115.227 85.622 C 127.882 91.757,136.584 112.606,134.236 131.164 C 133.646 135.832,134.006 138.720,135.412 140.583 C 135.475 140.667,138.598 139.996,142.352 139.092 L 149.176 137.449 150.533 135.034 C 152.231 132.011,152.608 132.114,146.126 133.822 C 139.560 135.551,139.909 135.748,141.490 131.207 C 146.768 116.049,137.593 89.490,127.063 89.447 C 125.282 89.440,124.503 89.012,124.811 88.210 C 124.969 87.799,127.907 86.917,134.297 85.361 C 144.659 82.840,145.238 82.641,143.298 82.277 C 137.999 81.283,132.496 81.133,127.344 81.840 M233.313 84.902 C 241.608 88.378,240.603 102.179,231.969 103.363 C 224.417 104.398,219.201 93.516,224.289 87.343 C 226.519 84.637,230.265 83.624,233.313 84.902 M103.711 86.700 C 101.133 87.315,99.470 87.835,100.016 87.855 C 108.418 88.157,119.277 98.989,123.204 110.987 C 126.304 120.456,126.471 128.111,123.779 137.329 C 123.249 139.142,127.470 152.091,147.199 209.180 C 173.476 285.213,171.034 278.413,172.345 279.207 C 173.355 279.818,173.724 279.767,180.743 278.037 C 184.782 277.041,189.492 276.013,191.211 275.752 C 192.930 275.491,194.391 275.232,194.459 275.178 C 194.527 275.124,193.855 272.996,192.965 270.450 C 192.076 267.904,189.446 260.195,187.121 253.320 C 184.795 246.445,180.841 234.844,178.334 227.539 C 169.181 200.874,163.879 185.395,158.396 169.336 C 155.316 160.313,152.644 152.961,152.460 152.999 C 152.275 153.037,149.580 153.370,146.472 153.739 C 137.783 154.771,137.959 154.909,134.117 144.055 L 131.589 136.914 132.103 132.813 C 134.284 115.412,129.682 100.679,118.939 90.668 C 113.756 85.838,110.678 85.035,103.711 86.700 M227.889 86.886 C 223.070 88.984,223.555 98.216,228.616 100.726 C 235.174 103.979,239.928 94.175,234.622 88.342 C 232.827 86.368,230.323 85.827,227.889 86.886 M93.068 90.024 C 89.591 91.110,85.790 94.284,82.875 98.535 C 81.431 100.642,81.468 100.694,83.641 99.585 C 85.266 98.756,88.892 97.736,93.858 96.710 C 104.111 94.592,114.809 104.371,117.770 118.568 C 120.533 131.812,114.707 147.095,105.939 149.606 C 102.882 150.482,96.718 151.565,96.032 151.347 C 94.443 150.843,95.461 151.617,97.866 152.741 C 109.401 158.134,118.691 150.595,122.806 132.504 C 127.706 110.961,109.463 84.902,93.068 90.024 M266.125 94.827 C 266.050 97.823,265.310 101.469,264.243 104.102 C 264.043 104.594,264.647 104.232,265.875 103.125 C 266.946 102.158,268.647 100.699,269.654 99.883 C 272.304 97.734,272.207 96.707,269.069 93.712 C 266.053 90.834,266.227 90.768,266.125 94.827 M284.375 94.426 C 283.623 94.482,280.873 94.915,278.264 95.389 L 273.520 96.249 273.318 97.749 C 273.068 99.613,272.746 100.001,269.343 102.535 C 261.929 108.054,253.178 118.498,251.548 123.772 C 250.549 127.004,250.569 127.214,251.944 127.925 C 253.246 128.598,253.151 128.745,253.722 125.195 C 255.794 112.326,278.237 95.084,288.057 98.817 C 289.036 99.189,289.050 99.170,288.824 97.743 C 288.395 95.037,287.284 94.209,284.375 94.426 M96.527 99.607 C 111.414 107.294,116.508 134.709,105.210 146.334 C 103.297 148.301,103.312 148.330,105.655 147.229 C 124.327 138.452,116.497 98.246,96.157 98.456 L 94.336 98.475 96.527 99.607 M88.040 100.348 C 73.825 104.003,71.000 130.159,83.401 143.305 C 94.991 155.590,109.375 146.788,109.375 127.410 C 109.375 112.266,97.967 97.796,88.040 100.348 M282.358 100.391 C 274.602 101.735,261.182 112.978,256.974 121.659 C 254.451 126.863,254.671 127.683,260.472 134.669 C 262.568 137.193,264.804 139.947,265.441 140.789 L 266.600 142.320 266.892 140.288 C 268.316 130.396,286.284 115.796,297.813 115.163 C 300.479 115.017,300.548 115.424,297.167 111.389 C 295.609 109.529,293.205 106.546,291.825 104.760 C 288.525 100.488,286.689 99.640,282.358 100.391 M204.688 113.147 C 188.061 116.820,174.618 119.828,168.359 121.275 C 158.978 123.444,147.217 126.200,145.697 126.586 C 144.384 126.919,144.302 127.042,143.860 129.371 C 143.291 132.364,142.265 132.263,151.172 130.087 C 163.007 127.194,181.942 122.854,198.047 119.343 C 203.525 118.149,209.975 116.721,212.379 116.170 L 216.749 115.169 215.533 113.151 C 214.863 112.041,214.303 111.110,214.287 111.083 C 214.271 111.055,209.951 111.984,204.688 113.147 M296.680 117.202 C 281.832 119.538,264.948 137.217,269.380 145.788 L 270.022 147.030 270.688 144.902 C 273.088 137.225,281.107 128.832,290.625 124.036 C 294.281 122.193,300.542 119.925,301.999 119.916 C 304.347 119.901,303.764 118.242,301.049 117.214 C 299.838 116.755,299.526 116.754,296.680 117.202 M93.674 118.759 C 95.147 119.657,96.865 122.932,96.871 124.854 C 96.889 130.691,91.808 133.832,88.304 130.149 C 83.054 124.630,87.575 115.040,93.674 118.759 M89.255 120.801 C 86.584 123.099,88.323 129.688,91.602 129.688 C 94.885 129.688,96.056 123.981,93.365 121.099 C 92.039 119.681,90.673 119.582,89.255 120.801 M250.217 120.277 C 250.097 120.472,249.120 120.857,248.046 121.132 C 246.972 121.407,246.101 121.731,246.110 121.851 C 246.149 122.381,249.220 125.436,249.228 124.953 C 249.233 124.656,249.653 123.403,250.161 122.168 C 250.935 120.285,250.972 119.056,250.217 120.277 M300.195 122.225 C 287.643 125.891,276.122 135.227,272.769 144.451 C 271.319 148.441,271.949 150.415,274.847 150.959 C 276.211 151.215,278.706 150.574,278.412 150.044 C 272.422 139.257,294.324 120.912,304.030 128.587 C 304.850 129.235,305.560 129.704,305.609 129.629 C 305.933 129.127,306.641 125.527,306.641 124.383 C 306.641 121.330,305.065 120.802,300.195 122.225 M294.299 129.620 C 285.136 132.787,277.074 142.425,279.370 147.466 C 279.822 148.457,279.857 148.418,280.677 145.983 C 283.043 138.958,291.072 132.631,299.805 130.910 L 303.320 130.217 302.070 129.562 C 300.437 128.705,296.867 128.732,294.299 129.620 M158.368 130.628 L 155.212 131.381 152.917 135.424 C 150.308 140.019,151.408 139.391,142.383 141.430 C 139.375 142.110,136.802 142.778,136.665 142.915 C 136.126 143.452,138.350 149.249,139.015 149.043 C 139.364 148.936,141.934 148.484,144.727 148.040 C 147.772 147.556,150.170 146.966,150.718 146.566 C 151.526 145.975,161.962 130.099,161.648 129.938 C 161.580 129.903,160.103 130.213,158.368 130.628 M299.805 132.696 C 286.984 135.700,278.382 146.921,284.035 153.264 L 286.039 155.513 286.885 153.431 C 288.214 150.162,291.225 146.221,293.572 144.680 C 294.011 144.392,296.209 143.803,298.455 143.372 C 300.701 142.941,304.416 142.210,306.709 141.748 L 310.879 140.907 309.872 139.301 C 305.361 132.104,304.563 131.580,299.805 132.696 M320.211 141.000 C 318.324 141.366,317.890 141.797,319.408 141.797 C 323.413 141.797,327.344 148.286,327.344 154.898 L 327.344 158.109 329.199 159.612 C 330.220 160.439,335.391 164.851,340.690 169.418 C 351.173 178.451,351.615 178.996,350.816 181.892 C 350.324 183.673,350.204 183.566,352.408 183.316 C 354.450 183.084,354.674 182.727,354.681 179.688 C 354.685 177.761,353.716 175.794,352.012 174.270 C 351.442 173.760,348.791 171.475,346.119 169.191 C 343.447 166.908,339.931 163.833,338.306 162.359 C 336.681 160.885,334.429 158.953,333.301 158.067 L 331.250 156.456 331.250 153.103 C 331.250 148.673,330.457 146.097,328.409 143.875 C 325.715 140.952,323.842 140.295,320.211 141.000 M122.078 142.273 C 121.813 142.915,124.421 151.038,131.648 172.070 C 133.198 176.582,136.363 185.898,138.682 192.773 C 141.001 199.648,144.772 210.723,147.062 217.383 C 149.352 224.043,153.745 236.875,156.825 245.898 C 166.884 275.370,167.810 277.920,168.499 278.056 C 169.464 278.246,170.592 281.712,156.447 241.016 C 147.565 215.462,141.202 196.983,135.934 181.445 C 132.164 170.325,122.901 143.123,122.566 142.188 C 122.390 141.694,122.313 141.708,122.078 142.273 M308.919 143.618 L 307.486 143.793 309.159 145.335 C 312.753 148.648,314.046 154.414,312.734 161.274 C 311.921 165.526,311.896 165.375,313.358 165.082 C 317.807 164.192,319.364 162.999,320.769 159.399 C 322.738 154.353,321.319 146.917,317.926 144.501 C 316.709 143.634,312.305 143.203,308.919 143.618 M320.692 144.531 C 324.175 150.148,324.589 157.684,321.645 161.886 C 320.691 163.248,321.045 163.474,322.279 162.292 C 326.799 157.961,326.584 150.191,321.806 145.209 C 320.156 143.489,319.979 143.381,320.692 144.531 M302.854 146.471 C 307.308 150.381,307.786 154.880,305.160 168.164 C 303.338 177.376,302.344 182.968,302.344 183.998 C 302.344 184.379,303.585 186.574,305.102 188.876 L 307.861 193.062 309.984 192.885 C 312.925 192.642,312.932 192.736,309.605 187.891 C 306.178 182.901,306.265 183.597,308.057 175.427 C 310.698 163.389,311.796 155.986,311.317 153.449 C 310.474 148.980,306.938 145.313,303.472 145.313 L 301.535 145.313 302.854 146.471 M119.538 147.645 C 114.053 156.193,105.314 158.692,96.350 154.275 C 94.499 153.364,94.118 153.278,94.335 153.821 C 94.483 154.190,95.400 156.652,96.372 159.291 L 98.141 164.090 101.121 165.827 C 105.608 168.442,105.272 168.608,123.377 154.849 C 123.865 154.478,121.495 145.703,120.907 145.703 C 120.840 145.703,120.224 146.577,119.538 147.645 M295.102 146.437 C 290.312 148.613,288.330 152.994,288.358 161.343 C 288.370 164.880,288.253 171.553,288.099 176.172 C 287.775 185.873,287.722 185.635,290.996 189.071 C 292.322 190.463,295.098 193.692,297.165 196.247 L 300.922 200.893 301.731 199.910 C 302.175 199.370,303.374 197.964,304.395 196.785 C 306.688 194.136,306.694 194.291,304.162 190.676 C 300.000 184.736,300.018 185.026,302.902 170.117 C 304.065 164.102,305.138 158.352,305.285 157.341 C 306.183 151.166,299.782 144.311,295.102 146.437 M299.207 149.408 C 302.900 151.318,303.805 157.747,300.744 160.323 C 297.471 163.077,293.306 159.704,293.255 154.258 C 293.217 150.202,296.139 147.821,299.207 149.408 M140.880 150.386 C 135.729 151.314,140.113 152.595,145.656 151.782 C 147.944 151.446,150.332 151.172,150.963 151.172 C 151.841 151.172,152.002 151.064,151.651 150.713 C 151.078 150.141,143.517 149.911,140.880 150.386 M296.562 151.220 C 294.067 152.143,295.008 158.208,297.795 159.170 C 298.773 159.507,299.024 159.421,299.845 158.466 C 302.142 155.796,299.565 150.109,296.562 151.220 M120.504 159.237 C 118.358 160.849,114.448 163.681,111.816 165.531 C 109.185 167.381,107.031 169.096,107.031 169.343 C 107.031 169.732,111.549 183.127,119.609 206.641 C 120.898 210.400,125.786 224.814,130.471 238.672 C 138.474 262.343,141.574 271.474,141.963 272.513 C 142.070 272.801,142.899 272.567,144.337 271.842 C 146.358 270.822,156.079 267.472,160.059 266.423 C 162.175 265.865,162.797 268.352,154.458 244.029 C 150.464 232.382,144.063 213.623,140.232 202.344 C 130.047 172.350,124.634 156.535,124.513 156.414 C 124.454 156.355,122.650 157.626,120.504 159.237 M324.920 162.244 C 323.625 164.885,322.426 165.485,316.424 166.499 C 311.096 167.400,311.755 166.948,311.083 170.154 C 310.417 173.333,309.925 173.075,315.039 172.229 C 323.689 170.798,323.243 170.983,324.822 168.159 C 327.063 164.153,327.818 161.681,327.059 160.840 C 326.171 159.856,326.053 159.934,324.920 162.244 M328.383 164.811 C 327.988 166.078,327.057 168.039,326.313 169.168 C 325.218 170.832,325.057 171.310,325.469 171.689 C 326.930 173.031,340.024 184.258,340.670 184.722 C 341.305 185.178,341.893 185.183,344.377 184.759 C 347.907 184.155,348.808 183.521,349.086 181.441 C 349.342 179.529,349.402 179.597,341.608 173.047 C 338.411 170.361,334.349 166.890,332.579 165.332 C 328.742 161.954,329.254 162.018,328.383 164.811 M345.389 178.003 C 348.227 180.722,345.142 184.987,341.674 183.139 C 339.610 182.040,339.191 179.524,340.803 177.912 C 342.118 176.597,343.959 176.633,345.389 178.003 M341.797 179.805 C 341.797 180.949,342.488 181.641,343.633 181.641 C 344.640 181.641,344.909 180.221,344.063 179.375 C 343.216 178.529,341.797 178.798,341.797 179.805 M297.149 184.572 C 297.610 184.894,298.186 185.763,298.430 186.501 C 299.534 189.844,295.846 192.000,293.329 189.483 C 290.506 186.660,293.899 182.296,297.149 184.572 M351.862 185.703 C 350.631 185.968,349.509 186.299,349.368 186.439 C 349.071 186.736,353.024 194.094,360.773 207.664 L 361.692 209.273 363.463 208.867 C 364.437 208.645,365.234 208.322,365.234 208.151 C 365.234 207.289,354.750 185.141,354.364 185.189 C 354.220 185.207,353.094 185.438,351.862 185.703 M294.262 186.577 C 293.930 187.441,294.620 188.449,295.647 188.602 C 296.677 188.755,297.092 187.854,296.501 186.749 C 295.983 185.782,294.607 185.676,294.262 186.577 M345.117 187.294 C 344.902 187.370,344.251 187.536,343.670 187.664 C 340.699 188.318,341.087 189.493,348.875 203.403 C 352.758 210.340,355.978 216.016,356.030 216.016 C 356.286 216.016,359.766 211.273,359.766 210.924 C 359.766 210.703,358.505 208.286,356.964 205.554 C 355.423 202.822,352.541 197.598,350.559 193.945 C 347.071 187.517,346.493 186.810,345.117 187.294 M309.277 195.202 C 307.596 195.456,307.782 195.794,315.297 206.095 C 319.198 211.444,323.109 216.829,323.988 218.063 L 325.586 220.305 327.344 220.065 C 328.311 219.933,329.327 219.705,329.602 219.558 C 330.118 219.283,323.572 209.802,316.349 200.363 C 314.447 197.877,312.891 195.635,312.891 195.382 C 312.891 194.930,311.522 194.862,309.277 195.202 M305.135 199.538 C 304.459 200.391,303.906 201.263,303.906 201.475 C 303.906 201.807,318.504 221.398,320.890 224.268 L 321.744 225.294 322.792 223.558 C 323.369 222.603,323.715 221.614,323.560 221.360 C 322.847 220.191,307.641 199.332,307.041 198.700 C 306.389 198.013,306.318 198.044,305.135 199.538 M363.370 211.214 C 362.617 211.359,359.375 215.026,359.375 215.733 C 359.375 215.861,360.112 215.753,361.013 215.492 C 362.625 215.025,366.101 210.848,364.758 210.991 C 364.483 211.020,363.858 211.121,363.370 211.214 M327.489 222.300 C 326.499 222.587,324.219 224.822,324.219 225.506 C 324.219 226.260,327.606 224.585,328.588 223.346 C 329.796 221.821,329.643 221.675,327.489 222.300 M199.316 260.805 C 198.066 260.984,197.505 261.719,198.618 261.719 C 204.852 261.719,216.835 273.706,221.142 284.250 C 226.933 298.426,226.783 312.324,220.702 325.000 C 218.087 330.451,217.934 331.041,219.238 330.646 C 228.272 327.913,234.110 316.586,234.028 301.953 C 233.898 278.870,216.574 258.334,199.316 260.805 M193.848 262.776 C 192.808 262.976,192.814 262.937,193.535 264.661 C 193.892 265.516,194.368 266.016,194.825 266.016 C 196.555 266.016,201.914 269.118,204.660 271.708 C 220.715 286.854,224.234 317.093,211.498 330.469 C 208.791 333.311,205.308 340.199,197.825 357.507 C 193.339 367.883,194.066 367.150,186.485 368.948 C 183.128 369.745,178.080 371.168,175.266 372.112 C 165.982 375.226,165.967 377.286,175.434 349.286 L 178.515 340.174 176.908 341.549 C 175.160 343.046,172.497 344.426,170.644 344.797 C 169.865 344.953,169.335 345.374,169.067 346.051 C 168.173 348.308,154.382 389.657,154.486 389.767 C 154.628 389.915,156.953 389.302,174.805 384.405 C 199.067 377.749,197.348 378.470,198.039 374.658 C 198.757 370.691,206.796 350.382,211.897 339.648 C 213.122 337.070,214.815 333.239,215.659 331.135 C 216.504 329.031,217.833 326.043,218.612 324.495 C 229.922 302.038,218.937 270.098,197.575 263.330 C 196.133 262.874,194.903 262.524,194.840 262.553 C 194.778 262.582,194.331 262.683,193.848 262.776 M154.883 270.065 C 149.505 271.929,140.726 275.680,144.727 274.404 C 151.075 272.379,158.106 272.747,163.379 275.379 C 164.614 275.996,165.623 276.470,165.621 276.434 C 165.586 275.776,162.499 267.780,162.256 267.716 C 162.068 267.667,158.750 268.724,154.883 270.065 M194.745 268.645 C 194.912 269.025,195.496 270.677,196.043 272.317 C 196.784 274.539,197.318 275.483,198.144 276.028 C 199.446 276.886,201.458 279.496,204.025 283.657 C 214.168 300.097,212.332 324.779,200.391 332.530 L 198.633 333.671 200.977 333.411 C 221.071 331.181,222.827 292.634,203.697 273.691 C 200.575 270.600,193.969 266.876,194.745 268.645 M148.242 275.934 C 144.882 276.753,144.508 277.188,146.890 277.504 C 170.304 280.610,183.207 326.506,165.451 343.526 C 164.597 344.344,164.480 344.582,165.039 344.361 C 165.469 344.192,167.227 343.618,168.945 343.087 C 174.504 341.368,176.579 339.640,179.409 334.375 C 192.832 309.401,171.905 270.161,148.242 275.934 M190.625 277.585 C 184.456 278.757,175.646 280.964,175.043 281.488 C 174.959 281.560,175.505 282.301,176.257 283.132 C 188.549 296.738,191.765 322.449,182.770 335.206 L 182.047 336.231 183.554 335.712 C 184.383 335.426,187.721 334.484,190.972 333.618 C 199.869 331.248,202.347 329.529,205.202 323.752 C 211.095 311.826,209.268 294.843,200.754 282.413 C 196.906 276.795,196.300 276.506,190.625 277.585 M138.353 279.882 C 126.788 283.134,119.792 299.327,122.828 315.820 C 129.080 349.787,162.455 359.390,170.343 329.492 C 176.918 304.576,157.520 274.494,138.353 279.882 M170.313 280.378 C 170.313 280.559,170.943 281.312,171.714 282.052 C 183.226 293.107,188.625 315.822,183.170 330.250 C 182.219 332.766,182.471 332.991,183.517 330.560 C 188.347 319.333,186.475 302.472,179.032 290.159 C 176.230 285.525,170.313 278.886,170.313 280.378 M148.828 293.623 C 157.383 297.749,163.332 312.467,160.753 323.125 C 155.549 344.630,131.039 335.719,129.808 311.874 C 129.043 297.064,138.047 288.424,148.828 293.623 M139.482 294.789 C 134.370 296.665,131.371 303.303,131.746 311.914 C 132.720 334.347,156.057 341.901,159.048 320.752 C 161.119 306.108,149.750 291.021,139.482 294.789 M147.476 301.906 C 153.661 304.715,156.925 315.413,153.587 321.935 C 148.728 331.433,137.577 325.403,136.821 312.869 C 136.301 304.252,141.305 299.103,147.476 301.906 M141.831 303.969 C 135.546 308.275,139.538 324.609,146.875 324.609 C 152.868 324.609,155.107 314.349,150.597 307.556 C 147.921 303.527,144.513 302.132,141.831 303.969 M123.504 339.160 C 113.387 375.702,113.697 373.823,117.466 375.723 C 120.471 377.238,130.993 381.983,135.185 383.713 C 137.027 384.473,140.659 386.082,143.257 387.289 C 148.994 389.953,151.552 390.428,152.487 389.001 C 153.135 388.013,167.160 346.018,166.786 346.190 C 166.667 346.244,165.413 346.709,163.999 347.222 L 161.430 348.156 159.272 355.035 C 158.085 358.818,156.640 363.496,156.062 365.430 C 154.634 370.202,151.722 378.523,150.564 381.142 C 149.625 383.266,149.602 383.284,148.148 383.100 C 146.807 382.931,118.654 370.310,117.792 369.491 C 117.313 369.037,118.210 365.525,126.030 337.243 C 126.949 333.920,126.789 331.637,125.639 331.641 C 125.610 331.641,124.649 335.025,123.504 339.160 M205.078 334.815 C 203.215 335.561,197.827 336.009,195.622 335.601 C 193.426 335.195,191.631 335.548,184.104 337.869 C 180.553 338.963,181.047 338.163,177.618 348.371 L 174.688 357.093 176.309 357.791 C 177.200 358.175,181.076 359.928,184.922 361.686 C 188.769 363.445,192.068 364.918,192.255 364.961 C 192.441 365.004,194.239 361.260,196.250 356.641 C 200.049 347.913,202.514 342.560,205.108 337.402 C 205.945 335.737,206.501 334.386,206.343 334.400 C 206.184 334.413,205.615 334.600,205.078 334.815 M125.804 344.978 C 124.449 349.996,122.454 357.326,121.372 361.266 C 119.736 367.226,119.498 368.489,119.956 368.780 C 120.260 368.972,123.760 370.564,127.734 372.317 C 131.709 374.071,137.831 376.798,141.339 378.378 C 144.846 379.958,147.928 381.250,148.188 381.250 C 149.014 381.250,152.170 372.392,156.817 357.031 C 158.019 353.057,159.094 349.512,159.205 349.154 C 159.392 348.550,159.243 348.547,157.145 349.114 C 147.800 351.637,135.530 346.335,129.042 336.970 L 128.269 335.854 125.804 344.978 M174.035 359.038 C 173.179 361.403,169.952 371.645,170.036 371.729 C 170.095 371.788,172.071 371.220,174.427 370.467 C 176.783 369.714,181.260 368.422,184.375 367.597 L 190.039 366.096 187.305 364.842 C 177.078 360.154,175.142 359.240,174.712 358.894 C 174.378 358.626,174.168 358.671,174.035 359.038 M112.109 362.264 C 107.283 364.012,107.333 363.900,110.727 365.379 C 113.879 366.752,113.782 366.763,114.295 364.970 C 115.499 360.770,115.666 360.976,112.109 362.264 M104.241 366.369 C 91.973 374.232,106.615 386.441,133.984 391.170 C 170.707 397.516,215.312 384.287,202.648 370.806 C 201.426 369.506,201.301 369.636,200.578 372.949 C 199.107 379.687,199.139 379.661,189.402 382.199 C 185.455 383.227,179.941 384.736,177.148 385.553 C 171.521 387.197,161.563 389.912,157.036 391.036 C 152.113 392.257,147.727 391.653,142.532 389.037 C 141.326 388.429,136.580 386.325,131.986 384.360 C 112.522 376.037,110.919 374.733,113.115 369.010 C 113.342 368.419,112.230 367.796,107.756 366.005 L 105.943 365.279 104.241 366.369 M99.613 383.016 C 99.618 390.063,100.775 392.324,106.250 395.986 C 118.729 404.334,147.557 409.125,168.359 406.308 C 181.295 404.557,189.103 402.574,195.653 399.376 C 203.469 395.561,204.688 393.664,204.688 385.313 L 204.688 380.738 203.027 382.393 C 197.525 387.879,183.157 392.524,166.211 394.296 C 141.628 396.866,109.098 389.459,100.811 379.405 L 99.609 377.947 99.613 383.016 M106.446 400.051 C 110.172 417.644,173.954 423.033,193.702 407.423 C 196.298 405.371,199.030 400.502,197.133 401.308 C 171.824 412.056,130.518 411.488,108.864 400.095 C 107.748 399.508,106.686 398.962,106.502 398.882 C 106.318 398.801,106.293 399.328,106.446 400.051 M105.771 412.253 C 105.504 437.329,105.578 439.870,106.639 441.948 C 115.039 458.396,166.528 463.418,188.876 449.969 C 194.528 446.568,196.920 442.972,197.169 437.500 C 197.400 432.454,197.869 406.249,197.729 406.250 C 197.661 406.250,197.182 406.754,196.663 407.370 C 183.770 422.693,124.353 422.036,108.315 406.394 L 105.859 403.999 105.771 412.253 M90.820 425.932 C 84.160 428.339,74.775 431.708,69.963 433.416 C 60.576 436.751,59.383 437.310,58.375 438.849 C 56.888 441.117,53.791 439.366,103.320 464.263 C 124.160 474.739,142.644 484.067,144.395 484.992 C 152.499 489.274,155.632 489.135,167.188 483.975 C 174.377 480.765,185.540 475.928,193.750 472.467 C 196.436 471.335,203.203 468.433,208.789 466.019 C 214.375 463.605,221.406 460.608,224.414 459.360 C 242.828 451.720,244.301 450.144,236.081 446.872 C 234.821 446.370,231.416 444.916,228.516 443.640 C 225.615 442.364,218.779 439.486,213.324 437.243 C 207.869 435.001,202.947 432.933,202.386 432.648 C 199.805 431.336,199.609 431.400,199.609 433.554 C 199.609 435.094,199.927 436.094,201.074 438.170 C 206.121 447.301,199.078 457.600,184.180 462.875 C 145.111 476.708,91.035 459.425,101.861 436.566 C 103.006 434.147,103.929 422.534,103.045 421.667 C 102.982 421.605,97.480 423.524,90.820 425.932 M77.294 437.519 C 81.292 439.766,79.780 443.059,74.294 444.056 C 66.548 445.464,62.219 438.844,69.546 436.797 C 71.769 436.175,75.526 436.525,77.294 437.519 M70.117 438.527 C 65.567 439.573,68.170 442.520,73.414 442.259 C 75.187 442.171,77.479 441.131,77.445 440.430 C 77.378 439.043,72.914 437.885,70.117 438.527 M103.009 439.309 C 101.719 440.599,103.335 447.286,105.680 450.362 C 124.121 474.543,202.025 468.698,200.281 443.264 C 200.076 440.266,199.219 437.951,199.219 440.395 C 199.219 445.335,191.392 451.968,181.445 455.459 C 153.093 465.408,108.553 456.881,103.740 440.582 C 103.489 439.731,103.160 439.158,103.009 439.309 M57.670 450.235 C 57.742 459.548,55.907 457.690,74.609 467.389 C 80.303 470.342,91.641 476.236,99.805 480.488 C 123.161 492.651,130.044 496.199,139.383 500.892 L 148.103 505.273 153.251 505.273 C 158.059 505.273,158.566 505.200,160.938 504.158 C 163.358 503.095,178.902 496.227,205.273 484.569 C 211.934 481.625,220.371 477.934,224.023 476.367 C 236.335 471.085,239.052 469.644,239.754 468.025 C 240.282 466.806,241.151 454.294,240.707 454.296 C 240.645 454.297,239.942 454.629,239.145 455.035 C 238.347 455.440,232.686 457.885,226.563 460.467 C 200.448 471.478,173.302 483.185,165.503 486.798 C 158.724 489.940,154.308 490.611,149.583 489.218 C 147.817 488.698,104.794 467.285,96.484 462.791 C 95.088 462.036,89.814 459.441,84.766 457.025 C 79.717 454.610,71.637 450.590,66.810 448.094 C 61.984 445.597,57.941 443.511,57.826 443.457 C 57.711 443.404,57.641 446.454,57.670 450.235 M229.883 446.564 C 235.868 448.788,232.879 453.906,225.596 453.906 C 217.818 453.906,216.907 447.779,224.414 445.955 C 225.470 445.698,228.444 446.029,229.883 446.564 M224.023 448.000 C 220.939 448.798,220.382 450.131,222.657 451.269 C 225.242 452.561,231.688 451.510,231.147 449.885 C 230.681 448.490,226.454 447.371,224.023 448.000 M157.333 477.220 C 162.726 479.467,159.841 484.371,153.125 484.371 C 150.596 484.371,148.674 483.737,147.296 482.451 C 143.284 478.702,151.107 474.625,157.333 477.220 M150.501 478.626 C 146.522 480.131,148.277 482.424,153.405 482.420 C 155.779 482.419,158.408 481.280,158.109 480.383 C 157.572 478.770,152.945 477.702,150.501 478.626 M154.070 492.034 C 155.367 492.532,154.785 503.906,153.463 503.906 C 152.720 503.906,152.281 492.771,152.995 492.057 C 153.312 491.740,153.305 491.740,154.070 492.034 " stroke="none" fill="#fbfaf6" fill-rule="evenodd"></path><path id="path1" d="M255.147 58.219 C 253.789 58.402,250.143 59.016,247.045 59.581 C 243.879 60.160,240.921 60.502,240.290 60.364 C 238.981 60.076,233.632 61.252,211.900 66.605 C 203.529 68.666,194.482 70.880,191.797 71.524 C 189.111 72.168,180.322 74.273,172.266 76.202 C 164.209 78.131,155.488 80.242,152.886 80.892 L 148.155 82.075 146.566 81.247 C 143.557 79.678,132.510 78.653,127.344 79.462 C 114.796 81.429,95.516 86.104,90.716 88.344 C 86.056 90.520,78.516 99.270,78.516 102.503 C 78.516 102.849,77.633 104.949,76.554 107.168 C 69.231 122.237,74.754 143.241,87.729 149.671 L 90.982 151.283 93.427 157.966 C 96.226 165.617,96.495 165.971,101.301 168.377 C 103.055 169.255,104.601 170.181,104.737 170.436 C 105.063 171.047,105.498 172.324,117.001 206.445 C 122.433 222.559,129.866 244.567,133.519 255.353 L 140.160 274.964 138.905 275.922 C 138.214 276.448,136.165 277.759,134.352 278.834 C 120.706 286.922,115.964 306.567,123.066 325.586 L 124.232 328.711 121.162 339.648 C 119.473 345.664,117.588 352.465,116.973 354.763 L 115.855 358.939 113.222 359.585 C 104.293 361.773,98.490 366.892,97.622 373.348 C 96.195 383.949,97.552 391.317,101.673 395.342 L 103.842 397.461 103.619 408.283 L 103.397 419.105 100.624 420.090 C 99.099 420.632,92.490 422.993,85.938 425.337 C 79.385 427.681,71.387 430.518,68.164 431.640 C 55.182 436.163,55.704 435.475,55.554 448.242 C 55.404 460.956,54.498 459.581,67.383 466.206 C 78.597 471.971,95.116 480.555,102.344 484.371 C 140.148 504.332,147.748 507.813,153.527 507.813 C 158.643 507.813,156.019 508.869,206.445 486.518 C 212.891 483.662,219.834 480.621,221.875 479.760 C 243.383 470.696,242.581 471.488,242.868 459.045 C 243.145 447.013,243.287 447.241,232.813 442.953 C 225.020 439.763,201.243 429.753,200.446 429.326 C 199.629 428.889,199.587 423.887,200.246 405.555 L 200.475 399.195 201.547 398.641 C 205.641 396.524,206.780 393.344,206.961 383.534 C 207.136 374.007,206.808 372.281,204.276 369.405 C 203.029 367.988,202.737 367.396,202.946 366.705 C 203.918 363.490,211.173 346.431,214.647 339.193 L 217.491 333.268 219.912 332.589 C 241.611 326.500,241.585 282.714,219.873 265.397 C 211.297 258.556,207.518 257.481,197.519 259.037 C 191.234 260.015,191.956 260.406,190.200 255.078 C 189.527 253.037,185.419 241.084,181.072 228.516 C 168.371 191.795,154.145 150.111,153.676 148.241 C 153.480 147.462,154.337 145.855,158.096 139.946 C 160.660 135.915,163.184 131.868,163.703 130.951 C 164.410 129.706,164.993 129.193,166.016 128.920 C 168.031 128.381,179.060 125.884,200.391 121.137 L 219.336 116.921 220.313 117.809 C 225.303 122.350,232.350 124.179,239.803 122.868 L 243.472 122.222 244.822 123.513 C 245.564 124.224,246.956 125.817,247.916 127.054 C 249.810 129.497,251.275 130.469,253.061 130.469 C 254.255 130.469,259.907 136.920,266.903 146.270 C 268.357 148.214,269.977 150.359,270.503 151.037 C 272.124 153.128,274.460 153.762,277.642 152.973 L 280.273 152.321 282.338 154.578 C 283.474 155.820,284.862 157.499,285.423 158.309 L 286.443 159.783 286.144 169.637 C 285.600 187.593,285.417 186.465,289.601 190.943 C 291.144 192.594,294.141 196.108,296.261 198.751 C 299.583 202.892,300.255 203.540,301.118 203.438 C 302.016 203.333,303.080 204.581,311.335 215.430 C 321.865 229.267,321.282 228.771,325.698 227.662 L 328.921 226.853 330.863 224.071 C 331.930 222.541,332.806 220.849,332.808 220.312 C 332.812 219.356,327.103 211.060,318.969 200.203 C 315.982 196.218,315.489 195.347,315.567 194.196 C 315.642 193.082,315.086 191.994,312.343 187.882 C 309.114 183.042,309.034 182.864,309.217 181.007 C 309.424 178.909,310.145 175.000,310.326 175.000 C 310.389 175.000,313.376 174.470,316.964 173.822 L 323.488 172.643 330.338 178.802 C 334.106 182.189,337.883 185.482,338.731 186.120 C 340.206 187.226,340.262 187.349,339.996 188.854 C 339.499 191.659,338.896 190.297,347.183 205.078 C 348.568 207.549,350.848 211.651,352.249 214.193 C 355.378 219.874,355.038 219.770,362.574 217.340 C 364.549 216.704,368.219 211.510,368.059 209.579 C 367.995 208.810,360.034 191.074,357.628 186.343 C 356.642 184.404,356.567 183.962,356.797 181.491 C 357.326 175.790,355.211 173.350,336.482 158.062 L 333.705 155.795 333.476 152.605 C 332.723 142.130,327.302 137.623,317.713 139.498 C 313.346 140.353,313.129 140.361,312.726 139.690 C 312.494 139.304,311.195 137.304,309.839 135.244 L 307.374 131.500 308.221 128.362 C 309.784 122.569,309.394 121.640,302.025 113.600 C 294.897 105.823,291.754 101.425,291.183 98.428 C 290.468 94.672,289.841 93.597,286.836 90.968 C 285.836 90.092,285.627 89.570,285.403 87.388 C 283.610 69.887,269.497 56.280,255.147 58.219 M263.281 61.018 C 273.320 64.209,281.154 74.247,283.031 86.322 L 283.303 88.074 281.615 86.681 C 279.647 85.056,279.620 85.009,278.537 81.499 C 275.417 71.377,268.939 63.939,260.395 60.667 C 257.497 59.557,259.422 59.791,263.281 61.018 M259.034 62.359 C 265.872 64.750,271.984 71.063,275.453 79.320 C 276.910 82.786,276.861 82.824,274.029 80.408 C 272.756 79.322,270.213 77.268,268.377 75.843 C 266.541 74.418,263.002 71.564,260.512 69.501 C 255.897 65.676,253.550 63.948,250.651 62.240 L 249.023 61.281 252.930 61.436 C 255.452 61.536,257.614 61.863,259.034 62.359 M244.408 63.614 C 259.060 67.460,268.266 89.283,261.598 104.360 C 258.431 111.522,252.366 117.454,246.487 119.140 L 245.141 119.526 246.616 118.310 C 263.058 104.757,257.155 70.707,237.207 64.034 C 235.864 63.585,234.766 63.144,234.766 63.054 C 234.766 62.559,241.988 62.978,244.408 63.614 M235.276 65.817 C 252.575 70.323,259.830 96.868,248.212 113.148 C 235.601 130.821,211.077 116.006,211.252 90.820 C 211.366 74.491,222.818 62.572,235.276 65.817 M216.956 69.637 C 215.687 70.984,214.297 72.557,213.867 73.133 C 213.163 74.077,212.300 74.353,205.078 75.946 C 200.674 76.918,191.006 79.127,183.594 80.855 C 176.182 82.583,165.635 85.035,160.156 86.303 C 154.678 87.572,147.054 89.356,143.215 90.269 C 138.746 91.332,136.064 91.800,135.762 91.570 C 135.502 91.372,134.458 90.598,133.442 89.850 L 131.594 88.489 135.035 87.606 C 139.303 86.511,142.336 85.779,161.914 81.121 C 177.636 77.380,201.264 71.622,212.500 68.793 C 215.830 67.954,218.714 67.250,218.910 67.228 C 219.105 67.206,218.226 68.290,216.956 69.637 M266.691 77.214 C 268.944 79.183,273.924 83.314,277.757 86.393 C 285.801 92.856,285.469 92.395,282.324 92.730 C 280.981 92.872,278.302 93.391,276.369 93.882 L 272.856 94.775 271.682 93.573 C 271.036 92.912,269.497 91.495,268.262 90.424 C 266.049 88.505,266.002 88.420,265.019 84.584 C 263.849 80.019,261.549 74.905,259.365 72.012 C 256.675 68.449,256.620 68.410,266.691 77.214 M212.109 76.319 C 212.109 76.399,211.690 77.415,211.176 78.575 C 207.919 85.940,208.335 98.184,212.127 106.548 C 212.762 107.947,213.281 109.136,213.281 109.190 C 213.281 109.244,212.622 109.409,211.816 109.556 C 211.011 109.704,204.902 111.106,198.242 112.673 C 191.582 114.239,182.881 116.261,178.906 117.167 C 174.932 118.073,165.736 120.206,158.472 121.907 C 151.208 123.608,145.098 125.000,144.894 125.000 C 144.679 125.000,144.623 124.145,144.760 122.949 C 145.639 115.291,142.163 101.376,137.841 95.252 C 136.500 93.352,133.883 94.152,164.648 87.061 C 174.102 84.882,188.516 81.558,196.680 79.673 C 212.731 75.969,212.109 76.104,212.109 76.319 M138.071 81.648 C 146.454 82.464,146.537 82.383,134.297 85.361 C 127.907 86.917,124.969 87.799,124.811 88.210 C 124.503 89.012,125.282 89.440,127.063 89.447 C 137.593 89.490,146.768 116.049,141.490 131.207 C 139.909 135.748,139.560 135.551,146.126 133.822 C 152.608 132.114,152.231 132.011,150.533 135.034 L 149.176 137.449 142.352 139.092 C 138.598 139.996,135.475 140.667,135.412 140.583 C 134.006 138.720,133.646 135.832,134.236 131.164 C 136.584 112.606,127.882 91.757,115.227 85.622 C 113.835 84.947,112.826 84.390,112.986 84.385 C 113.145 84.379,115.606 83.919,118.454 83.362 C 128.801 81.339,132.008 81.059,138.071 81.648 M226.891 85.164 C 218.489 89.603,222.683 104.635,231.969 103.363 C 240.603 102.179,241.608 88.378,233.313 84.902 C 231.527 84.153,228.577 84.274,226.891 85.164 M113.794 87.018 C 126.653 93.035,134.598 112.906,132.103 132.813 L 131.589 136.914 134.117 144.055 C 137.959 154.909,137.783 154.771,146.472 153.739 C 149.580 153.370,152.275 153.037,152.460 152.999 C 152.644 152.961,155.316 160.313,158.396 169.336 C 163.879 185.395,169.181 200.874,178.334 227.539 C 180.841 234.844,184.795 246.445,187.121 253.320 C 189.446 260.195,192.076 267.904,192.965 270.450 C 193.855 272.996,194.527 275.124,194.459 275.178 C 194.391 275.232,192.930 275.491,191.211 275.752 C 189.492 276.013,184.782 277.041,180.743 278.037 C 173.724 279.767,173.355 279.818,172.345 279.207 C 171.034 278.413,173.476 285.213,147.199 209.180 C 127.470 152.091,123.249 139.142,123.779 137.329 C 126.471 128.111,126.304 120.456,123.204 110.987 C 119.277 98.989,108.418 88.157,100.016 87.855 C 99.470 87.835,101.133 87.315,103.711 86.700 C 109.142 85.402,110.429 85.443,113.794 87.018 M232.734 86.877 C 238.634 89.947,238.006 100.235,231.847 101.391 C 226.387 102.415,222.291 93.584,225.883 88.531 C 227.311 86.522,230.550 85.740,232.734 86.877 M101.779 89.965 C 115.164 92.772,126.587 115.880,122.806 132.504 C 118.691 150.595,109.401 158.134,97.866 152.741 C 95.461 151.617,94.443 150.843,96.032 151.347 C 96.718 151.565,102.882 150.482,105.939 149.606 C 114.707 147.095,120.533 131.812,117.770 118.568 C 114.809 104.371,104.111 94.592,93.858 96.710 C 88.892 97.736,85.266 98.756,83.641 99.585 C 81.468 100.694,81.431 100.642,82.875 98.535 C 88.077 90.947,93.892 88.312,101.779 89.965 M269.069 93.712 C 272.207 96.707,272.304 97.734,269.654 99.883 C 268.647 100.699,266.946 102.158,265.875 103.125 C 264.647 104.232,264.043 104.594,264.243 104.102 C 265.310 101.469,266.050 97.823,266.125 94.827 C 266.227 90.768,266.053 90.834,269.069 93.712 M288.250 95.647 C 289.215 97.453,289.107 99.216,288.057 98.817 C 278.237 95.084,255.794 112.326,253.722 125.195 C 253.151 128.745,253.246 128.598,251.944 127.925 C 250.569 127.214,250.549 127.004,251.548 123.772 C 253.178 118.498,261.929 108.054,269.343 102.535 C 272.746 100.001,273.068 99.613,273.318 97.749 L 273.520 96.249 278.264 95.389 C 285.473 94.081,287.441 94.132,288.250 95.647 M100.315 99.165 C 118.545 104.839,122.382 139.366,105.655 147.229 C 103.312 148.330,103.297 148.301,105.210 146.334 C 116.508 134.709,111.414 107.294,96.527 99.607 L 94.336 98.475 96.157 98.456 C 97.158 98.446,99.029 98.765,100.315 99.165 M95.510 101.318 C 105.066 105.693,111.399 121.463,108.754 134.294 C 104.346 155.681,82.433 152.814,76.525 130.078 C 71.886 112.229,82.900 95.545,95.510 101.318 M288.310 100.997 C 288.864 101.280,290.445 102.973,291.825 104.760 C 293.205 106.546,295.609 109.529,297.167 111.389 C 300.548 115.424,300.479 115.017,297.813 115.163 C 286.284 115.796,268.316 130.396,266.892 140.288 L 266.600 142.320 265.441 140.789 C 264.804 139.947,262.568 137.193,260.472 134.669 C 254.671 127.683,254.451 126.863,256.974 121.659 C 262.992 109.246,281.097 97.308,288.310 100.997 M215.533 113.151 L 216.749 115.169 212.379 116.170 C 209.975 116.721,203.525 118.149,198.047 119.343 C 181.942 122.854,163.007 127.194,151.172 130.087 C 142.265 132.263,143.291 132.364,143.860 129.371 C 144.302 127.042,144.384 126.919,145.697 126.586 C 147.217 126.200,158.978 123.444,168.359 121.275 C 178.832 118.853,214.237 110.996,214.287 111.083 C 214.303 111.110,214.863 112.041,215.533 113.151 M301.049 117.214 C 303.764 118.242,304.347 119.901,301.999 119.916 C 300.542 119.925,294.281 122.193,290.625 124.036 C 281.107 128.832,273.088 137.225,270.688 144.902 L 270.022 147.030 269.380 145.788 C 264.560 136.467,283.641 118.004,299.291 116.846 C 299.653 116.819,300.444 116.984,301.049 117.214 M88.784 118.605 C 87.271 119.351,85.938 121.880,85.938 124.004 C 85.938 130.301,91.289 133.944,94.925 130.122 C 99.761 125.038,94.760 115.659,88.784 118.605 M93.365 121.099 C 96.056 123.981,94.885 129.688,91.602 129.688 C 88.323 129.688,86.584 123.099,89.255 120.801 C 90.673 119.582,92.039 119.681,93.365 121.099 M250.161 122.168 C 249.653 123.403,249.233 124.656,249.228 124.953 C 249.220 125.436,246.149 122.381,246.110 121.851 C 246.101 121.731,246.972 121.407,248.046 121.132 C 249.120 120.857,250.097 120.472,250.217 120.277 C 250.972 119.056,250.935 120.285,250.161 122.168 M306.236 122.240 C 306.870 123.423,306.454 128.319,305.609 129.629 C 305.560 129.704,304.850 129.235,304.030 128.587 C 300.832 126.059,296.711 126.217,290.990 129.088 C 279.859 134.674,274.674 143.313,278.412 150.044 C 278.706 150.574,276.211 151.215,274.847 150.959 C 267.904 149.656,275.174 135.926,286.821 128.344 C 294.354 123.441,305.075 120.070,306.236 122.240 M302.070 129.562 L 303.320 130.217 299.805 130.910 C 291.072 132.631,283.043 138.958,280.677 145.983 C 279.857 148.418,279.822 148.457,279.370 147.466 C 275.901 139.851,294.186 125.429,302.070 129.562 M156.702 137.950 C 150.651 147.434,151.142 147.020,144.727 148.040 C 141.934 148.484,139.364 148.936,139.015 149.043 C 138.350 149.249,136.126 143.452,136.665 142.915 C 136.802 142.778,139.375 142.110,142.383 141.430 C 151.408 139.391,150.308 140.019,152.917 135.424 L 155.212 131.381 158.368 130.628 C 160.103 130.213,161.580 129.903,161.648 129.938 C 161.717 129.973,159.491 133.579,156.702 137.950 M305.303 132.721 C 305.714 133.002,307.871 136.108,309.872 139.301 L 310.879 140.907 306.709 141.748 C 304.416 142.210,300.701 142.941,298.455 143.372 C 296.209 143.803,294.011 144.392,293.572 144.680 C 291.225 146.221,288.214 150.162,286.885 153.431 L 286.039 155.513 284.035 153.264 C 278.382 146.921,286.984 135.700,299.805 132.696 C 301.088 132.395,304.851 132.412,305.303 132.721 M325.326 141.373 C 329.291 143.396,331.250 147.275,331.250 153.103 L 331.250 156.456 333.301 158.067 C 334.429 158.953,336.681 160.885,338.306 162.359 C 339.931 163.833,343.447 166.908,346.119 169.191 C 348.791 171.475,351.442 173.760,352.012 174.270 C 353.716 175.794,354.685 177.761,354.681 179.688 C 354.674 182.727,354.450 183.084,352.408 183.316 C 350.204 183.566,350.324 183.673,350.816 181.892 C 351.615 178.996,351.173 178.451,340.690 169.418 C 335.391 164.851,330.220 160.439,329.199 159.612 L 327.344 158.109 327.344 154.898 C 327.344 148.286,323.413 141.797,319.408 141.797 C 317.890 141.797,318.324 141.366,320.211 141.000 C 322.704 140.516,323.803 140.596,325.326 141.373 M127.633 157.031 C 130.305 164.873,134.040 175.859,135.934 181.445 C 141.202 196.983,147.565 215.462,156.447 241.016 C 170.592 281.712,169.464 278.246,168.499 278.056 C 167.810 277.920,166.884 275.370,156.825 245.898 C 153.745 236.875,149.352 224.043,147.062 217.383 C 144.772 210.723,141.001 199.648,138.682 192.773 C 136.363 185.898,133.198 176.582,131.648 172.070 C 124.421 151.038,121.813 142.915,122.078 142.273 C 122.313 141.708,122.390 141.694,122.566 142.188 C 122.682 142.510,124.962 149.189,127.633 157.031 M317.926 144.501 C 321.319 146.917,322.738 154.353,320.769 159.399 C 319.364 162.999,317.807 164.192,313.358 165.082 C 311.896 165.375,311.921 165.526,312.734 161.274 C 314.046 154.414,312.753 148.648,309.159 145.335 L 307.486 143.793 308.919 143.618 C 312.305 143.203,316.709 143.634,317.926 144.501 M324.637 149.506 C 326.407 154.095,325.457 159.247,322.279 162.292 C 321.045 163.474,320.691 163.248,321.645 161.886 C 324.589 157.684,324.175 150.148,320.692 144.531 C 319.979 143.381,320.156 143.489,321.806 145.209 C 323.043 146.498,324.089 148.087,324.637 149.506 M307.090 146.596 C 310.828 149.446,312.070 153.293,311.133 159.113 C 310.247 164.615,309.134 170.520,308.057 175.427 C 306.265 183.597,306.178 182.901,309.605 187.891 C 312.932 192.736,312.925 192.642,309.984 192.885 L 307.861 193.062 305.102 188.876 C 303.585 186.574,302.344 184.379,302.344 183.998 C 302.344 182.968,303.338 177.376,305.160 168.164 C 307.786 154.880,307.308 150.381,302.854 146.471 L 301.535 145.313 303.472 145.313 C 305.059 145.313,305.712 145.544,307.090 146.596 M122.482 150.064 C 123.716 153.765,123.851 154.489,123.377 154.849 C 105.272 168.608,105.608 168.442,101.121 165.827 L 98.141 164.090 96.372 159.291 C 95.400 156.652,94.483 154.190,94.335 153.821 C 94.118 153.278,94.499 153.364,96.350 154.275 C 105.314 158.692,114.053 156.193,119.538 147.645 C 121.094 145.220,120.783 144.965,122.482 150.064 M301.528 148.340 C 303.645 150.471,304.282 151.411,304.850 153.240 C 305.683 155.926,305.738 155.457,302.902 170.117 C 300.018 185.026,300.000 184.736,304.162 190.676 C 306.694 194.291,306.688 194.136,304.395 196.785 C 303.374 197.964,302.175 199.370,301.731 199.910 L 300.922 200.893 297.165 196.247 C 295.098 193.692,292.322 190.463,290.996 189.071 C 287.722 185.635,287.775 185.873,288.099 176.172 C 288.253 171.553,288.370 164.880,288.358 161.343 C 288.333 153.996,288.733 152.596,291.884 149.017 C 295.484 144.928,297.966 144.754,301.528 148.340 M295.830 149.398 C 291.197 151.414,293.220 161.328,298.265 161.328 C 303.411 161.328,304.151 151.965,299.207 149.408 C 297.847 148.705,297.427 148.704,295.830 149.398 M151.651 150.713 C 152.002 151.064,151.841 151.172,150.963 151.172 C 150.332 151.172,147.944 151.446,145.656 151.782 C 141.677 152.365,137.817 151.896,138.769 150.945 C 139.693 150.021,150.759 149.822,151.651 150.713 M299.817 152.915 C 301.669 156.076,300.381 160.062,297.795 159.170 C 295.008 158.208,294.067 152.143,296.562 151.220 C 297.941 150.710,298.781 151.147,299.817 152.915 M128.944 169.178 C 131.322 176.140,136.402 191.064,140.232 202.344 C 144.063 213.623,150.464 232.382,154.458 244.029 C 162.797 268.352,162.175 265.865,160.059 266.423 C 156.079 267.472,146.358 270.822,144.337 271.842 C 142.899 272.567,142.070 272.801,141.963 272.513 C 141.574 271.474,138.474 262.343,130.471 238.672 C 125.786 224.814,120.898 210.400,119.609 206.641 C 111.549 183.127,107.031 169.732,107.031 169.343 C 107.031 169.096,109.185 167.381,111.816 165.531 C 114.448 163.681,118.358 160.849,120.504 159.237 C 122.650 157.626,124.454 156.355,124.513 156.414 C 124.572 156.473,126.566 162.217,128.944 169.178 M327.059 160.840 C 327.818 161.681,327.063 164.153,324.822 168.159 C 323.243 170.983,323.689 170.798,315.039 172.229 C 309.925 173.075,310.417 173.333,311.083 170.154 C 311.755 166.948,311.096 167.400,316.424 166.499 C 322.426 165.485,323.625 164.885,324.920 162.244 C 326.053 159.934,326.171 159.856,327.059 160.840 M332.579 165.332 C 334.349 166.890,338.411 170.361,341.608 173.047 C 349.402 179.597,349.342 179.529,349.086 181.441 C 348.808 183.521,347.907 184.155,344.377 184.759 C 341.893 185.183,341.305 185.178,340.670 184.722 C 340.024 184.258,326.930 173.031,325.469 171.689 C 325.057 171.310,325.218 170.832,326.313 169.168 C 327.057 168.039,327.988 166.078,328.383 164.811 C 329.254 162.018,328.742 161.954,332.579 165.332 M340.803 177.912 C 339.749 178.966,339.525 180.997,340.344 182.065 C 341.720 183.856,344.457 184.113,345.675 182.565 C 348.259 179.280,343.745 174.969,340.803 177.912 M344.063 179.375 C 344.909 180.221,344.640 181.641,343.633 181.641 C 342.488 181.641,341.797 180.949,341.797 179.805 C 341.797 178.798,343.216 178.529,344.063 179.375 M293.146 184.943 C 291.802 186.287,291.872 188.026,293.329 189.483 C 295.846 192.000,299.534 189.844,298.430 186.501 C 297.590 183.955,294.921 183.168,293.146 184.943 M356.650 189.355 C 359.731 195.751,365.234 207.801,365.234 208.151 C 365.234 208.322,364.437 208.645,363.463 208.867 L 361.692 209.273 360.773 207.664 C 353.024 194.094,349.071 186.736,349.368 186.439 C 349.571 186.237,353.157 185.339,354.364 185.189 C 354.509 185.171,355.538 187.046,356.650 189.355 M296.501 186.749 C 297.092 187.854,296.677 188.755,295.647 188.602 C 294.620 188.449,293.930 187.441,294.262 186.577 C 294.607 185.676,295.983 185.782,296.501 186.749 M350.559 193.945 C 352.541 197.598,355.423 202.822,356.964 205.554 C 358.505 208.286,359.766 210.703,359.766 210.924 C 359.766 211.273,356.286 216.016,356.030 216.016 C 355.978 216.016,352.758 210.340,348.875 203.403 C 341.087 189.493,340.699 188.318,343.670 187.664 C 344.251 187.536,344.902 187.370,345.117 187.294 C 346.493 186.810,347.071 187.517,350.559 193.945 M312.891 195.382 C 312.891 195.635,314.447 197.877,316.349 200.363 C 323.572 209.802,330.118 219.283,329.602 219.558 C 329.327 219.705,328.311 219.933,327.344 220.065 L 325.586 220.305 323.988 218.063 C 323.109 216.829,319.198 211.444,315.297 206.095 C 307.782 195.794,307.596 195.456,309.277 195.202 C 311.522 194.862,312.891 194.930,312.891 195.382 M315.499 210.156 C 319.778 216.064,323.405 221.106,323.560 221.360 C 323.715 221.614,323.369 222.603,322.792 223.558 L 321.744 225.294 320.890 224.268 C 318.504 221.398,303.906 201.807,303.906 201.475 C 303.906 201.263,304.459 200.391,305.135 199.538 C 306.665 197.606,305.678 196.596,315.499 210.156 M363.954 212.978 C 362.896 214.633,362.342 215.107,361.013 215.492 C 359.001 216.074,358.998 216.000,360.929 213.443 C 362.318 211.603,362.978 211.180,364.758 210.991 C 365.042 210.960,364.695 211.818,363.954 212.978 M328.588 223.346 C 327.606 224.585,324.219 226.260,324.219 225.506 C 324.219 224.822,326.499 222.587,327.489 222.300 C 329.643 221.675,329.796 221.821,328.588 223.346 M209.680 261.819 C 217.663 265.043,225.416 272.932,229.688 282.180 C 238.616 301.504,233.246 326.407,219.238 330.646 C 217.934 331.041,218.087 330.451,220.702 325.000 C 226.783 312.324,226.933 298.426,221.142 284.250 C 216.835 273.706,204.852 261.719,198.618 261.719 C 197.505 261.719,198.066 260.984,199.316 260.805 C 202.440 260.358,207.221 260.825,209.680 261.819 M197.575 263.330 C 212.482 268.053,223.095 285.494,223.097 305.273 C 223.098 313.134,222.032 317.705,218.612 324.495 C 217.833 326.043,216.504 329.031,215.659 331.135 C 214.815 333.239,213.122 337.070,211.897 339.648 C 206.796 350.382,198.757 370.691,198.039 374.658 C 197.348 378.470,199.067 377.749,174.805 384.405 C 156.953 389.302,154.628 389.915,154.486 389.767 C 154.382 389.657,168.173 348.308,169.067 346.051 C 169.335 345.374,169.865 344.953,170.644 344.797 C 172.497 344.426,175.160 343.046,176.908 341.549 L 178.515 340.174 175.434 349.286 C 165.967 377.286,165.982 375.226,175.266 372.112 C 178.080 371.168,183.128 369.745,186.485 368.948 C 194.066 367.150,193.339 367.883,197.825 357.507 C 205.308 340.199,208.791 333.311,211.498 330.469 C 224.234 317.093,220.715 286.854,204.660 271.708 C 201.914 269.118,196.555 266.016,194.825 266.016 C 194.368 266.016,193.892 265.516,193.535 264.661 C 192.814 262.937,192.808 262.976,193.848 262.776 C 194.331 262.683,194.778 262.582,194.840 262.553 C 194.903 262.524,196.133 262.874,197.575 263.330 M164.107 272.086 C 164.938 274.441,165.619 276.397,165.621 276.434 C 165.623 276.470,164.614 275.996,163.379 275.379 C 158.106 272.747,151.075 272.379,144.727 274.404 C 140.726 275.680,149.505 271.929,154.883 270.065 C 163.322 267.139,162.281 266.911,164.107 272.086 M198.928 270.007 C 200.177 270.672,202.323 272.330,203.697 273.691 C 222.827 292.634,221.071 331.181,200.977 333.411 L 198.633 333.671 200.391 332.530 C 212.332 324.779,214.168 300.097,204.025 283.657 C 201.458 279.496,199.446 276.886,198.144 276.028 C 197.318 275.483,196.784 274.539,196.043 272.317 C 195.496 270.677,194.912 269.025,194.745 268.645 C 194.372 267.794,195.412 268.133,198.928 270.007 M159.480 276.172 C 174.410 280.784,186.209 304.406,182.991 323.242 C 181.008 334.844,176.920 340.620,168.945 343.087 C 167.227 343.618,165.469 344.192,165.039 344.361 C 164.480 344.582,164.597 344.344,165.451 343.526 C 183.207 326.506,170.304 280.610,146.890 277.504 C 145.177 277.277,144.953 277.162,145.560 276.820 C 148.278 275.291,155.533 274.953,159.480 276.172 M197.070 277.903 C 205.523 284.350,210.824 304.721,207.440 317.751 C 204.906 327.509,201.467 330.822,190.972 333.618 C 187.721 334.484,184.383 335.426,183.554 335.712 L 182.047 336.231 182.770 335.206 C 191.765 322.449,188.549 296.738,176.257 283.132 C 175.505 282.301,174.959 281.560,175.043 281.488 C 175.958 280.693,191.706 277.088,194.690 276.990 C 195.338 276.969,196.359 277.361,197.070 277.903 M149.667 280.558 C 169.249 287.769,178.540 322.936,165.388 340.067 C 155.250 353.272,136.541 347.976,127.165 329.247 C 114.112 303.173,128.214 272.659,149.667 280.558 M174.548 284.022 C 185.522 296.909,189.381 316.930,183.517 330.560 C 182.471 332.991,182.219 332.766,183.170 330.250 C 188.625 315.822,183.226 293.107,171.714 282.052 C 170.943 281.312,170.313 280.559,170.313 280.378 C 170.313 279.601,172.072 281.114,174.548 284.022 M141.125 292.227 C 126.680 294.090,125.727 322.788,139.790 332.426 C 150.938 340.066,162.078 331.571,161.208 316.094 C 160.413 301.946,151.147 290.935,141.125 292.227 M148.058 295.551 C 155.478 299.590,160.434 310.953,159.048 320.752 C 156.057 341.901,132.720 334.347,131.746 311.914 C 131.166 298.585,139.068 290.659,148.058 295.551 M141.594 301.716 C 137.147 303.654,135.343 311.790,137.880 318.470 C 141.301 327.479,149.792 329.353,153.587 321.935 C 158.410 312.510,149.869 298.111,141.594 301.716 M147.868 304.478 C 153.782 308.989,154.810 320.237,149.628 323.729 C 144.558 327.146,138.243 319.733,138.751 310.961 C 139.141 304.227,143.487 301.137,147.868 304.478 M126.355 332.654 C 126.988 333.620,126.973 333.830,126.030 337.243 C 118.210 365.525,117.313 369.037,117.792 369.491 C 118.654 370.310,146.807 382.931,148.148 383.100 C 149.602 383.284,149.625 383.266,150.564 381.142 C 151.722 378.523,154.634 370.202,156.062 365.430 C 156.640 363.496,158.085 358.818,159.272 355.035 L 161.430 348.156 163.999 347.222 C 165.413 346.709,166.667 346.244,166.786 346.190 C 167.160 346.018,153.135 388.013,152.487 389.001 C 151.552 390.428,148.994 389.953,143.257 387.289 C 140.659 386.082,137.027 384.473,135.185 383.713 C 130.993 381.983,120.471 377.238,117.466 375.723 C 113.915 373.933,113.896 374.600,117.904 359.732 C 121.756 345.442,125.556 331.641,125.639 331.641 C 125.668 331.641,125.990 332.096,126.355 332.654 M205.108 337.402 C 202.514 342.560,200.049 347.913,196.250 356.641 C 194.239 361.260,192.441 365.004,192.255 364.961 C 192.068 364.918,188.769 363.445,184.922 361.686 C 181.076 359.928,177.200 358.175,176.309 357.791 L 174.688 357.093 177.618 348.371 C 181.047 338.163,180.553 338.963,184.104 337.869 C 191.631 335.548,193.426 335.195,195.622 335.601 C 197.827 336.009,203.215 335.561,205.078 334.815 C 205.615 334.600,206.184 334.413,206.343 334.400 C 206.501 334.386,205.945 335.737,205.108 337.402 M132.974 341.239 C 140.107 348.359,149.095 351.287,157.145 349.114 C 159.243 348.547,159.392 348.550,159.205 349.154 C 159.094 349.512,158.019 353.057,156.817 357.031 C 152.170 372.392,149.014 381.250,148.188 381.250 C 147.928 381.250,144.846 379.958,141.339 378.378 C 137.831 376.798,131.709 374.071,127.734 372.317 C 123.760 370.564,120.260 368.972,119.956 368.780 C 119.498 368.489,119.736 367.226,121.372 361.266 C 122.454 357.326,124.449 349.996,125.804 344.978 L 128.269 335.854 129.042 336.970 C 129.467 337.584,131.237 339.505,132.974 341.239 M179.883 361.436 C 182.461 362.620,185.801 364.153,187.305 364.842 L 190.039 366.096 184.375 367.597 C 181.260 368.422,176.783 369.714,174.427 370.467 C 172.071 371.220,170.095 371.788,170.036 371.729 C 169.952 371.645,173.179 361.403,174.035 359.038 C 174.168 358.671,174.378 358.626,174.712 358.894 C 174.978 359.108,177.305 360.251,179.883 361.436 M114.986 362.402 C 113.851 367.042,114.118 366.856,110.727 365.379 C 107.333 363.900,107.283 364.012,112.109 362.264 C 115.299 361.109,115.303 361.109,114.986 362.402 M111.456 367.577 C 112.800 368.180,113.276 368.591,113.115 369.010 C 110.919 374.733,112.522 376.037,131.986 384.360 C 136.580 386.325,141.326 388.429,142.532 389.037 C 147.727 391.653,152.113 392.257,157.036 391.036 C 161.563 389.912,171.521 387.197,177.148 385.553 C 179.941 384.736,185.455 383.227,189.402 382.199 C 199.139 379.661,199.107 379.687,200.578 372.949 C 201.301 369.636,201.426 369.506,202.648 370.806 C 215.312 384.287,170.707 397.516,133.984 391.170 C 106.615 386.441,91.973 374.232,104.241 366.369 L 105.943 365.279 107.756 366.005 C 108.754 366.404,110.419 367.112,111.456 367.577 M104.491 382.631 C 116.502 391.202,144.745 396.540,166.211 394.296 C 183.157 392.524,197.525 387.879,203.027 382.393 L 204.688 380.738 204.688 385.313 C 204.688 393.664,203.469 395.561,195.653 399.376 C 189.103 402.574,181.295 404.557,168.359 406.308 C 147.557 409.125,118.729 404.334,106.250 395.986 C 100.775 392.324,99.618 390.063,99.613 383.016 L 99.609 377.947 100.811 379.405 C 101.472 380.206,103.128 381.658,104.491 382.631 M108.864 400.095 C 119.669 405.780,133.800 408.606,152.344 408.791 C 171.803 408.985,183.758 406.988,197.133 401.308 C 199.030 400.502,196.298 405.371,193.702 407.423 C 175.418 421.876,117.207 418.632,107.485 402.620 C 106.652 401.248,105.968 398.648,106.502 398.882 C 106.686 398.962,107.748 399.508,108.864 400.095 M114.272 410.605 C 137.264 422.526,185.503 420.633,196.663 407.370 C 197.182 406.754,197.661 406.250,197.729 406.250 C 197.869 406.249,197.400 432.454,197.169 437.500 C 196.920 442.972,194.528 446.568,188.876 449.969 C 166.528 463.418,115.039 458.396,106.639 441.948 C 105.578 439.870,105.504 437.329,105.771 412.253 L 105.859 403.999 108.315 406.394 C 109.934 407.973,111.964 409.408,114.272 410.605 M103.148 427.827 C 103.136 433.833,103.127 433.892,101.861 436.566 C 91.035 459.425,145.111 476.708,184.180 462.875 C 199.078 457.600,206.121 447.301,201.074 438.170 C 199.927 436.094,199.609 435.094,199.609 433.554 C 199.609 431.400,199.805 431.336,202.386 432.648 C 202.947 432.933,207.869 435.001,213.324 437.243 C 218.779 439.486,225.615 442.364,228.516 443.640 C 231.416 444.916,234.821 446.370,236.081 446.872 C 244.301 450.144,242.828 451.720,224.414 459.360 C 221.406 460.608,214.375 463.605,208.789 466.019 C 203.203 468.433,196.436 471.335,193.750 472.467 C 185.540 475.928,174.377 480.765,167.188 483.975 C 155.632 489.135,152.499 489.274,144.395 484.992 C 142.644 484.067,124.160 474.739,103.320 464.263 C 53.791 439.366,56.888 441.117,58.375 438.849 C 59.383 437.310,60.576 436.751,69.963 433.416 C 74.775 431.708,84.160 428.339,90.820 425.932 C 97.480 423.524,102.982 421.605,103.045 421.667 C 103.109 421.729,103.155 424.501,103.148 427.827 M69.546 436.797 C 62.219 438.844,66.548 445.464,74.294 444.056 C 79.780 443.059,81.292 439.766,77.294 437.519 C 75.526 436.525,71.769 436.175,69.546 436.797 M76.414 439.283 C 77.732 440.267,77.712 440.676,76.306 441.497 C 73.000 443.428,65.632 441.519,68.369 439.441 C 70.181 438.065,74.665 437.977,76.414 439.283 M105.050 443.509 C 114.093 458.141,155.393 464.601,181.445 455.459 C 191.392 451.968,199.219 445.335,199.219 440.395 C 199.219 437.951,200.076 440.266,200.281 443.264 C 200.471 446.029,200.385 446.618,199.519 448.484 C 187.161 475.108,102.895 469.427,102.747 441.960 C 102.732 439.060,103.129 438.510,103.740 440.582 C 103.992 441.433,104.581 442.750,105.050 443.509 M66.810 448.094 C 71.637 450.590,79.717 454.610,84.766 457.025 C 89.814 459.441,95.088 462.036,96.484 462.791 C 104.794 467.285,147.817 488.698,149.583 489.218 C 154.308 490.611,158.724 489.940,165.503 486.798 C 173.302 483.185,200.448 471.478,226.563 460.467 C 232.686 457.885,238.347 455.440,239.145 455.035 C 239.942 454.629,240.645 454.297,240.707 454.296 C 241.151 454.294,240.282 466.806,239.754 468.025 C 239.052 469.644,236.335 471.085,224.023 476.367 C 220.371 477.934,211.934 481.625,205.273 484.569 C 178.902 496.227,163.358 503.095,160.938 504.158 C 158.566 505.200,158.059 505.273,153.251 505.273 L 148.103 505.273 139.383 500.892 C 130.044 496.199,123.161 492.651,99.805 480.488 C 91.641 476.236,80.303 470.342,74.609 467.389 C 61.067 460.366,58.758 459.044,58.194 457.990 C 57.727 457.117,57.376 443.247,57.826 443.457 C 57.941 443.511,61.984 445.597,66.810 448.094 M224.414 445.955 C 218.260 447.451,217.222 451.157,222.356 453.302 C 226.411 454.996,233.203 452.876,233.203 449.916 C 233.203 447.581,227.779 445.137,224.414 445.955 M229.818 448.735 C 231.519 449.729,231.499 450.247,229.729 451.151 C 225.984 453.061,218.688 450.908,221.964 448.859 C 224.087 447.530,227.658 447.474,229.818 448.735 M150.275 476.728 C 149.245 477.005,147.882 477.730,147.248 478.338 C 142.614 482.776,153.890 486.844,158.972 482.567 C 162.808 479.340,156.447 475.069,150.275 476.728 M157.007 479.246 C 158.414 480.258,158.405 480.748,156.962 481.627 C 153.906 483.491,146.521 481.831,148.599 479.748 C 150.268 478.076,154.987 477.794,157.007 479.246 M152.995 492.057 C 152.281 492.771,152.720 503.906,153.463 503.906 C 154.785 503.906,155.367 492.532,154.070 492.034 C 153.305 491.740,153.312 491.740,152.995 492.057 " stroke="none" fill="#10110f" fill-rule="evenodd"></path></g></svg>