<?xml version="1.0" encoding="UTF-8" standalone="no"?>
<!-- Created with Inkscape (http://www.inkscape.org/) -->

<svg
   width="130mm"
   height="170mm"
   viewBox="0 0 130 170"
   version="1.1"
   id="svg5"
   inkscape:version="1.2.1 (9c6d41e, 2022-07-14)"
   xml:space="preserve"
   sodipodi:docname="rbg.svg"
   inkscape:export-filename="rba.jef"
   inkscape:export-xdpi="96"
   inkscape:export-ydpi="96"
   xmlns:inkscape="http://www.inkscape.org/namespaces/inkscape"
   xmlns:sodipodi="http://sodipodi.sourceforge.net/DTD/sodipodi-0.dtd"
   xmlns="http://www.w3.org/2000/svg"
   xmlns:svg="http://www.w3.org/2000/svg"
   xmlns:inkstitch="http://inkstitch.org/namespace"><metadata
     id="metadata22045"><inkstitch:min_stitch_len_mm>0.2</inkstitch:min_stitch_len_mm><inkstitch:collapse_len_mm>3.0</inkstitch:collapse_len_mm><inkstitch:inkstitch_svg_version>3</inkstitch:inkstitch_svg_version></metadata><sodipodi:namedview
     id="namedview7"
     pagecolor="#ffffff"
     bordercolor="#000000"
     borderopacity="0.25"
     inkscape:showpageshadow="2"
     inkscape:pageopacity="0.0"
     inkscape:pagecheckerboard="0"
     inkscape:deskcolor="#d1d1d1"
     inkscape:document-units="mm"
     showgrid="false"
     inkscape:zoom="0.98114615"
     inkscape:cx="314.93779"
     inkscape:cy="359.27369"
     inkscape:current-layer="svgg" /><defs
     id="defs2" /><g
     inkscape:label="Layer 1"
     inkscape:groupmode="layer"
     id="layer1"><g
       id="svgg"
       transform="matrix(0.200218 0 0 0.200218 10.6116 -7.53093)"><path
         id="path21902"
         d="m 191.67162,67.782861 c 2.35836,0.317805 8.69014,1.384101 14.07025,2.365302 5.4982,1.005514 10.63518,1.599444 11.731,1.359788 2.27326,-0.500152 11.56254,1.542136 49.30318,10.838364 14.5374,3.579213 30.24877,7.424136 34.91165,8.542526 4.66461,1.1184 19.92793,4.77402 33.91829,8.124 13.9921,3.349969 29.13733,7.016019 33.65607,8.144829 l 8.21603,2.05445 2.75952,-1.43794 c 5.22555,-2.72479 24.4102,-4.50484 33.38168,-3.0999 21.79134,3.41597 55.27374,11.53476 63.60961,15.42483 8.09273,3.77892 21.18699,18.97451 21.18699,24.58907 0,0.60087 1.53345,4.24782 3.40729,8.10142 12.7174,26.16941 3.12595,62.64577 -19.40694,73.81236 l -5.64929,2.79946 -4.24608,11.60596 c -4.86085,13.28703 -5.32801,13.9018 -13.6743,18.08015 -3.04606,1.52477 -5.7309,3.1329 -5.96709,3.57574 -0.56614,1.06108 -1.32158,3.27877 -21.29814,62.53463 -9.43342,27.9842 -22.34186,66.20415 -28.6858,84.93554 l -11.53302,34.05722 2.17948,1.6637 c 1.20002,0.91347 4.75839,3.19021 7.90692,5.05709 23.69818,14.04594 31.93332,48.16221 19.59971,81.19135 l -2.02492,5.42699 5.33148,18.99362 c 2.93318,10.44762 6.20675,22.2585 7.27478,26.2493 l 1.94156,7.2522 4.57257,1.12187 c 15.50645,3.79977 25.58417,12.68962 27.09157,23.90136 2.47818,18.41011 0.12156,31.20567 -7.03513,38.19564 l -3.76677,3.67994 0.38727,18.7939 0.38554,18.79391 4.8157,1.71059 c 2.64837,0.94126 14.12582,5.04146 25.50428,9.11214 11.38019,4.07069 25.26983,8.99753 30.86702,10.94604 22.54504,7.85482 21.63852,6.66001 21.89901,28.83168 0.2605,22.07963 1.83389,19.69175 -20.5427,31.19698 -19.47467,10.01172 -48.1622,24.91903 -60.71463,31.54605 -65.6519,34.66504 -78.85035,40.71028 -88.88639,40.71028 -8.88464,0 -4.3277,1.8339 -91.89946,-36.98172 -11.19437,-4.95984 -23.25186,-10.24096 -26.79634,-11.73621 -37.35163,-15.74089 -35.95884,-14.36547 -36.45726,-35.97447 -0.48105,-20.89524 -0.72765,-20.49929 17.46191,-27.946 13.53362,-5.53987 54.82569,-22.92363 56.20979,-23.66517 1.41883,-0.75891 1.49177,-9.44558 0.34733,-41.28165 l -0.39769,-11.04502 -1.86168,-0.9621 c -7.1098,-3.67646 -9.08783,-9.19897 -9.40216,-26.2354 -0.30392,-16.54496 0.2657,-19.5424 4.66287,-24.53697 2.16559,-2.46082 2.67269,-3.48891 2.30973,-4.68893 -1.68801,-5.58329 -14.28733,-35.20862 -20.32041,-47.77841 l -4.939,-10.28958 -4.2044,-1.17918 c -37.68333,-10.5744 -37.63818,-86.61487 0.0677,-116.68824 14.89342,-11.88035 21.45618,-13.74724 38.82083,-11.04503 10.91478,1.69844 9.66092,2.37746 12.71046,-6.87535 1.16876,-3.54448 8.30287,-24.30253 15.85204,-46.1286 22.05705,-63.77112 46.76248,-136.16118 47.57696,-139.40869 0.34038,-1.35284 -1.14792,-4.14362 -7.67594,-14.40542 -4.45275,-7.00039 -8.83602,-14.02857 -9.73734,-15.62107 -1.2278,-2.16211 -2.24026,-3.05301 -4.01684,-3.52711 -3.49933,-0.93605 -22.65272,-5.27244 -59.69697,-13.51626 l -32.90062,-7.32167 -1.6967,1.54213 c -8.66582,7.88608 -20.90392,11.06239 -33.84709,8.78566 l -6.37173,-1.12187 -2.34446,2.242 c -1.28859,1.23475 -3.70599,4.00122 -5.37316,6.14944 -3.28919,4.24261 -5.83337,5.93062 -8.93501,5.93062 -2.07354,0 -11.88903,11.20306 -24.03855,27.44063 -2.52508,3.37603 -5.33843,7.10112 -6.2519,8.27856 -2.81509,3.63131 -6.87188,4.73234 -12.39787,3.36213 l -4.5691,-1.13229 -3.58615,3.9196 c -1.97283,2.1569 -4.38328,5.07272 -5.35754,6.4794 l -1.77137,2.5598 0.51926,17.11284 c 0.94473,31.18309 1.26253,29.22416 -6.00356,37.00083 -2.67964,2.86719 -7.88434,8.96974 -11.56602,13.55968 -5.76911,7.19142 -6.93613,8.31676 -8.43485,8.13963 -1.55951,-0.18235 -3.40729,1.98497 -17.743244,20.82577 -18.286808,24.02987 -17.274348,23.1685 -24.943345,21.24257 l -5.597187,-1.40494 -3.372553,-4.83133 c -1.852994,-2.65706 -3.374289,-5.59545 -3.377763,-6.52803 -0.0069,-1.66023 9.907525,-16.06738 24.033346,-34.92207 5.187341,-6.92051 6.043504,-8.43312 5.908046,-10.43199 -0.130248,-1.93462 0.835323,-3.82408 5.598924,-10.96514 5.607607,-8.40533 5.746538,-8.71445 5.428733,-11.93939 -0.359484,-3.64347 -1.611601,-10.43199 -1.925933,-10.43199 -0.109408,0 -5.296748,-0.92042 -11.527809,-2.04576 l -11.329832,-2.0475 -11.895977,10.69596 c -6.543655,5.882 -13.10294,11.60075 -14.57561,12.70872 -2.561542,1.92073 -2.658794,2.13433 -2.196848,4.74797 0.863109,4.87128 1.910303,2.50597 -12.481224,28.17523 -2.405245,4.29124 -6.364781,11.41493 -8.797813,15.82947 -5.433943,9.86584 -4.843485,9.68523 -17.9307998,5.4652 -3.429862,-1.1045 -9.803327,-10.1246 -9.525464,-13.47805 0.111144,-1.33548 13.9365303,-32.13651 18.1148838,-40.35255 1.712326,-3.36734 1.842574,-4.13493 1.443147,-8.42617 -0.918682,-9.90058 2.754309,-14.13798 35.279819,-40.68771 l 4.822646,-3.93696 0.397691,-5.53988 c 1.307689,-18.19129 10.722008,-26.01832 27.374639,-22.76213 7.583902,1.48483 7.960752,1.49872 8.660618,0.33344 0.4029,-0.67034 2.658794,-4.14362 5.013676,-7.7211 l 4.280813,-6.50197 -1.470931,-5.44958 c -2.714366,-10.06035 -2.037077,-11.67368 10.760211,-25.63626 12.37877,-13.50584 17.83702,-21.14358 18.82864,-26.34829 1.2417,-6.52281 2.33057,-8.3897 7.54917,-12.95532 1.73664,-1.5213 2.0996,-2.42782 2.48861,-6.21717 3.11379,-30.392919 27.62298,-54.023362 52.54374,-50.656019 m -14.12582,4.860852 c -17.43412,5.541615 -31.03894,22.973998 -34.29862,43.943907 l -0.47236,3.04259 2.93145,-2.41913 c 3.4177,-2.82204 3.46459,-2.90366 5.34537,-8.99927 5.41831,-17.578259 16.66826,-30.495375 31.5061,-36.177657 5.03278,-1.927669 1.68975,-1.521296 -5.01194,0.60956 m 7.37551,2.328833 c -11.87514,4.152304 -22.48948,15.115705 -28.51388,29.455134 -2.53028,6.01919 -2.44518,6.08518 2.47298,1.88946 2.21074,-1.88599 6.62701,-5.45305 9.81548,-7.927759 3.18847,-2.47471 9.33444,-7.43107 13.65867,-11.01376 8.01458,-6.642644 12.09048,-9.643556 17.12499,-12.609735 l 2.82725,-1.665437 -6.78505,0.269179 c -4.3798,0.173664 -8.13441,0.741545 -10.60044,1.602918 m 25.40008,2.179482 c -25.44523,6.679113 -41.43273,44.577782 -29.85282,70.761092 5.49993,12.4378 16.03265,22.73955 26.24235,25.66752 l 2.33751,0.67034 -2.56154,-2.11175 c -28.55382,-23.53667 -18.30244,-82.669219 16.34004,-94.257814 2.3323,-0.779751 4.23913,-1.545609 4.23913,-1.701906 0,-0.859636 -12.542,-0.131985 -16.74467,0.972518 m 15.85899,3.825815 c -30.04212,7.825298 -42.64144,53.924377 -22.46517,82.196857 21.90076,30.69162 64.49009,4.96331 64.18618,-38.77568 C 267.70339,96.041451 247.8154,75.34245 226.18036,80.977843 m 31.81522,6.633961 c 2.2038,2.339257 4.61772,5.070987 5.36448,6.071287 1.22259,1.63939 2.72131,2.1187 15.26332,4.88517 7.64816,1.688009 24.43798,5.524249 37.30995,8.525159 12.87197,3.00091 31.1883,7.25915 40.70334,9.46121 9.51331,2.20379 22.75344,5.30196 29.4204,6.88751 7.76104,1.84604 12.41871,2.65879 12.94317,2.25936 0.45153,-0.34385 2.26458,-1.68801 4.029,-2.98701 l 3.20931,-2.36357 -5.97577,-1.53345 c -7.41198,-1.90162 -12.6792,-3.17284 -46.67912,-11.26211 -27.30344,-6.49676 -68.33674,-16.496329 -87.84962,-21.409279 -5.783,-1.45704 -10.79147,-2.679634 -11.13185,-2.71784 -0.33865,-0.03821 1.18786,1.84431 3.39339,4.183563 m -86.37174,13.158516 c -3.91264,3.41944 -12.56111,10.59349 -19.21764,15.9406 -13.96953,11.2239 -13.39296,10.42331 -7.93123,11.00509 2.3323,0.2466 6.98476,1.14791 10.34168,2.0006 l 6.10082,1.55082 2.03881,-2.08744 c 1.12187,-1.14792 3.79456,-3.60873 5.9393,-5.46867 3.84319,-3.33261 3.92481,-3.48023 5.63192,-10.14198 2.03187,-7.92775 6.02614,-16.808919 9.81896,-21.833019 4.67156,-6.187644 4.76707,-6.255373 -12.72262,9.033999 m 94.78923,-1.554299 c 0,0.13894 0.72765,1.903359 1.62028,3.917859 5.65624,12.79035 4.93379,34.05375 -1.65154,48.579 -1.10277,2.42956 -2.00408,4.49442 -2.00408,4.5882 0,0.0938 1.14444,0.38033 2.54417,0.63561 1.398,0.25702 12.00713,2.69179 23.57314,5.41311 11.56602,2.71957 26.67651,6.23106 33.57965,7.80445 6.9014,1.5734 22.87154,5.27765 35.48648,8.23167 12.61495,2.95402 23.22581,5.37142 23.58008,5.37142 0.37338,0 0.47063,-1.48482 0.23271,-3.56184 -1.5265,-13.29918 4.51005,-37.46451 12.01581,-48.09969 2.32883,-3.29962 6.87361,-1.9103 -46.55408,-14.22481 -16.41819,-3.78414 -41.4501,-9.55672 -55.62802,-12.83029 -27.87479,-6.432509 -26.7946,-6.198059 -26.7946,-5.824689 m 128.57727,9.254549 c -14.55824,1.4171 -14.70238,1.27643 6.55408,6.44814 11.09712,2.70221 16.19936,4.23393 16.47375,4.94769 0.53489,1.39278 -0.81795,2.13606 -3.91091,2.14822 -18.28681,0.0747 -34.22047,46.19807 -25.05449,72.52204 2.74563,7.88608 3.35172,7.54396 -8.05106,4.54131 -11.25689,-2.96618 -10.60218,-3.14505 -7.65336,2.10481 l 2.35662,4.19398 11.85082,2.8533 c 6.51934,1.56992 11.94287,2.7352 12.05227,2.58933 2.44172,-3.23536 3.06691,-8.25077 2.04229,-16.3574 -4.07763,-32.22855 11.0346,-68.43573 33.01177,-79.09001 2.4174,-1.17224 4.16967,-2.13954 3.89181,-2.14823 -0.27613,-0.0104 -4.55,-0.80927 -9.49594,-1.77658 -17.96901,-3.51322 -23.53841,-3.99948 -34.06765,-2.9766 m -154.24827,6.10603 c 14.59124,7.70894 7.30778,33.81409 -8.81865,31.60509 -14.99414,-2.05618 -16.73946,-26.02354 -2.33404,-32.06009 3.10163,-1.30075 8.22472,-1.09061 11.15269,0.455 m 196.40865,3.21972 c -22.33144,10.44936 -36.12903,44.95811 -31.79612,79.52938 l 0.89263,7.12196 -4.39022,12.40134 c -6.67217,18.84948 -6.36652,18.60982 -21.45617,16.81761 -5.39748,-0.64082 -10.07772,-1.21912 -10.399,-1.28511 -0.31954,-0.066 -4.95984,12.70177 -10.30868,28.37147 -9.522,27.88868 -18.72966,54.77011 -34.62511,101.07759 -4.35376,12.68615 -11.22043,32.8329 -15.25985,44.77229 -4.03768,11.93939 -8.60504,25.32714 -10.14892,29.74862 -1.5456,4.42149 -2.71263,8.11705 -2.59453,8.21083 0.11809,0.0938 2.65532,0.54357 5.6406,0.99683 2.98528,0.45326 11.16485,2.23853 18.17914,3.96822 12.18946,3.00439 12.83028,3.09296 14.58429,2.03187 2.27673,-1.37889 -1.96414,10.43025 43.66952,-121.61161 34.26215,-99.14298 41.5925,-121.63072 40.67208,-124.77925 -4.67503,-16.00833 -4.38501,-29.3023 0.99857,-45.74654 6.81978,-20.83619 25.67794,-39.64746 40.26918,-40.17193 0.94821,-0.0347 -1.93982,-0.93778 -6.41688,-2.00582 -9.43168,-2.25415 -11.66674,-2.18295 -17.51053,0.55225 m -206.55581,-0.24486 c -10.24617,5.33148 -9.15556,23.19802 1.5404,25.20557 9.48205,1.77832 16.59532,-13.55794 10.35731,-22.33317 -2.47992,-3.48891 -8.10489,-4.84696 -11.89771,-2.8724 m 227.42155,5.36274 c -23.24491,4.87474 -43.08254,45.005 -36.51631,73.87488 7.14627,31.41754 23.27965,44.51006 43.31178,35.14436 4.17662,-1.95198 5.94451,-3.29614 3.18499,-2.42087 -1.19133,0.37859 -11.89597,-1.50219 -17.20488,-3.02349 -15.22685,-4.3607 -25.34451,-30.90175 -20.54617,-53.9018 5.14219,-24.65506 23.72075,-41.63765 41.52651,-37.95945 8.62415,1.78179 14.9212,3.55316 17.74324,4.99284 3.77371,1.92593 3.83797,1.83562 1.33026,-1.82348 -9.03399,-13.17761 -19.13255,-17.75366 -32.82942,-14.88299 m -290.52232,6.50718 c -5.44958,5.20124 -5.61803,6.98477 -1.01594,10.7168 1.7488,1.4171 4.70282,3.95086 6.56276,5.63019 2.13259,1.92246 3.18152,2.55112 2.8342,1.69669 -1.853,-4.57257 -3.13811,-10.90435 -3.26836,-16.10732 -0.17714,-7.04902 0.12504,-6.9344 -5.11266,-1.93636 m -33.31047,3.3604 c -1.67586,3.13637 -1.4883,6.19807 0.33517,5.50515 17.05379,-6.48288 56.02918,23.46025 59.62749,45.80906 0.99163,6.16507 0.82664,5.90978 3.08775,4.74102 2.38788,-1.23475 2.42261,-1.59944 0.68771,-7.21226 -2.83072,-9.15903 -18.02805,-27.29649 -30.90349,-36.881 -5.90978,-4.40064 -6.46898,-5.07446 -6.90314,-8.31155 l -0.3508,-2.60496 -8.23862,-1.49351 c -12.51943,-2.27153 -15.93713,-2.18296 -17.34207,0.44805 m 326.37523,6.1095 c -31.65893,9.85369 -38.32241,69.81462 -9.27365,83.46981 4.06894,1.91204 4.09499,1.86168 0.7728,-1.55429 -19.62054,-20.18843 -10.77411,-67.79839 15.07924,-81.14793 l 3.80497,-1.96587 -3.16242,-0.033 c -1.73837,-0.0174 -4.98762,0.53662 -7.22094,1.23128 m 8.34455,3.73898 c -16.59532,7.5978 -27.59346,34.98459 -23.00005,57.26741 7.65511,37.14149 45.71008,32.16255 55.97014,-7.32167 8.05627,-30.99727 -11.07107,-59.97136 -32.97009,-49.94574 M 134.07947,142.0728 c -0.9621,0.49147 -3.70773,3.4316 -6.10429,6.53497 -2.39656,3.10164 -6.57144,8.28203 -9.27712,11.51218 -5.87158,7.00734 -5.75175,6.30053 -1.12187,6.55408 20.02171,1.09929 51.22564,26.45422 53.69861,43.63305 l 0.5071,3.52885 2.01276,-2.6588 c 1.10624,-1.46225 4.98937,-6.24495 8.62936,-10.62823 10.07424,-12.13215 10.4563,-13.5562 6.07476,-22.59367 -10.45109,-21.5569 -41.89294,-42.28889 -54.41931,-35.88243 m 126.38737,21.10711 -2.11176,3.50454 7.58912,1.73837 c 4.17488,0.95689 15.3762,3.43681 24.88951,5.51036 27.96857,6.09734 60.85182,13.63435 81.40494,18.65845 15.46825,3.77892 13.68646,3.95432 12.69831,-1.24344 -0.7676,-4.04463 -0.91,-4.25824 -3.19021,-4.83654 -2.63969,-0.67034 -23.0643,-5.45652 -39.35571,-9.22329 -18.18782,-4.20614 -79.67352,-17.85091 -79.76035,-17.69982 -0.0278,0.0469 -1.0003,1.6637 -2.16385,3.59137 m -148.51042,7.05596 c -4.71497,1.78527 -5.72743,4.66635 -1.6498,4.6924 2.53028,0.0156 13.40338,3.95433 19.75253,7.15495 16.52933,8.32892 30.45544,22.90453 34.62337,36.23671 l 1.1566,3.69557 1.11492,-2.15691 c 8.3706,-16.18721 -24.76621,-48.25077 -51.9446,-50.2618 -0.62867,-0.0469 -2.00235,0.23966 -3.05302,0.63908 m 368.62766,2.41567 c 2.62754,1.29553 4.94248,5.68749 4.94248,9.37611 0,10.93562 -9.29276,17.26219 -15.60718,10.62476 -8.39838,-8.82907 0.28655,-25.11701 10.6647,-20.00087 m -7.95554,4.33117 c -4.6733,5.005 -2.63969,14.916 3.06169,14.916 5.69444,0 8.71446,-11.44272 4.0759,-15.43351 -2.46256,-2.11697 -4.83481,-1.94504 -7.13759,0.51751 m -272.29803,1.85647 c 0.88221,2.14475 1.6116,4.32076 1.62028,4.83654 0.0139,0.8388 5.34711,-4.46663 5.41484,-5.38705 0.0156,-0.2084 -1.49698,-0.77107 -3.36213,-1.24865 -1.86515,-0.47757 -3.56185,-1.14618 -3.77025,-1.48482 -1.31116,-2.12044 -1.2469,0.0139 0.0973,3.28398 m -97.38203,0.12504 c -1.10103,2.05444 -0.37859,10.55703 1.08887,12.83202 0.0851,0.13025 1.31811,-0.68423 2.74215,-1.80957 5.55377,-4.39023 12.71046,-4.11584 22.64578,0.87005 19.33052,9.70087 28.335,24.70369 21.84344,36.39301 -0.51057,0.92042 3.82234,2.0336 6.19112,1.58902 12.05748,-2.26284 -0.56788,-26.10689 -20.79452,-39.27409 -13.0821,-8.51474 -31.7006,-14.36895 -33.71684,-10.60044 m 7.23484,12.71567 -2.1708,1.1375 6.10428,1.20349 c 15.16607,2.98875 29.10954,13.97647 33.21843,26.17636 1.42405,4.22871 1.48483,4.29644 2.26979,2.57543 6.0244,-13.2245 -25.73004,-38.27031 -39.4217,-31.09278 m 252.45172,14.56693 c 10.5084,16.47028 9.65571,15.75131 20.79625,17.52268 4.85043,0.77107 9.3136,1.55603 9.91968,1.74185 1.15487,0.35775 5.01715,-9.70955 4.08111,-10.64212 -0.23792,-0.23792 -4.7063,-1.398 -9.93011,-2.57891 -15.67316,-3.54101 -13.76286,-2.4504 -18.29375,-10.43025 l -3.98559,-7.02123 -5.48083,-1.30769 c -3.01307,-0.72071 -5.57808,-1.25907 -5.69617,-1.19828 -0.11983,0.0608 3.74593,6.3231 8.58941,13.91395 m -258.06632,-9.08089 c -0.71376,0.488 -4.45969,5.882 -7.934702,11.42709 l -1.748795,2.78904 7.241787,1.46051 c 3.98211,0.80233 10.43372,2.07181 14.33422,2.8203 3.90049,0.74849 7.71762,1.77137 8.48,2.27153 4.0759,2.67616 9.30491,9.52025 11.61291,15.19732 l 1.46919,3.61569 3.48023,-3.9057 c 9.81722,-11.01551 -5.12135,-30.50233 -27.3868,-35.71919 -2.2281,-0.52273 -8.76308,-0.49321 -9.54804,0.0434 m -34.772719,15.0254 c -6.885774,3.51322 -10.287849,10.24964 -10.287849,20.37078 v 5.82295 l -3.561847,2.79772 c -1.958928,1.53866 -5.869839,4.89385 -8.691877,7.45366 -2.822039,2.5598 -8.928061,7.89997 -13.56836,11.86471 -4.640299,3.96649 -9.244129,7.93471 -10.234013,8.82039 -2.959233,2.64664 -4.642036,6.06261 -4.635089,9.40911 0.01216,5.27765 0.401163,5.89763 3.94738,6.30053 3.827552,0.43416 3.619155,0.61998 2.764729,-2.47298 -1.387574,-5.0293 -0.61998,-5.97577 17.585205,-21.66283 9.20245,-7.93123 18.18261,-15.59328 19.955718,-17.02948 l 3.221465,-2.61017 v -5.57635 c 0,-11.48265 6.826728,-22.7517 13.781967,-22.7517 2.636218,0 1.882516,-0.74849 -1.394521,-1.3841 -4.329441,-0.84054 -6.238007,-0.70161 -8.882908,0.64776 M 413.1174,239.38361 c -4.6403,13.61873 -11.12665,32.69744 -14.41584,42.39831 -9.14862,26.98389 -20.19885,59.07524 -35.62368,103.45331 -24.56475,70.67426 -22.60582,64.65507 -20.92997,64.32511 1.19655,-0.23618 2.80467,-4.66461 20.27352,-55.84684 5.34885,-15.66969 12.97791,-37.95424 16.95481,-49.52025 3.9769,-11.56602 10.52577,-30.7993 14.55303,-42.73869 4.02727,-11.93939 9.52373,-28.11792 12.21552,-35.95363 12.55069,-36.52499 17.07985,-50.63171 16.61964,-51.74663 -0.40811,-0.9812 -0.54183,-1.00552 -0.84748,-0.14762 -0.20145,0.5592 -4.16099,12.15821 -8.79955,25.77693 M 82.647169,217.62354 c -5.892416,4.19572 -8.356707,17.10936 -4.937265,25.87244 2.439978,6.2519 5.143925,8.32372 12.870231,9.86932 2.538966,0.50884 2.49555,0.77107 1.083663,-6.61312 -2.27847,-11.91334 -0.033,-21.9268 6.208484,-27.68028 l 2.905398,-2.6779 -2.488605,-0.30391 c -5.880259,-0.72071 -13.528417,0.0278 -15.641906,1.53345 m -11.654584,8.69188 c -3.073851,7.96943 -1.424044,16.9166 4.094994,22.20466 2.143013,2.05271 2.757783,1.66023 1.101029,-0.70507 -5.112664,-7.29736 -4.393696,-20.38467 1.655017,-30.13937 1.238224,-1.99714 0.930839,-1.80958 -1.934615,1.17744 -2.148223,2.23853 -3.964747,4.99805 -4.916425,7.46234 m 30.472805,-5.05362 c -6.491558,4.94942 -8.648464,11.63027 -7.021233,21.73751 1.538662,9.55498 3.471541,19.80984 5.341901,28.33152 3.112062,14.18834 3.263142,12.97964 -2.688317,21.64547 -5.777798,8.41402 -5.765641,8.25077 -0.658186,8.67278 l 3.686885,0.30738 4.79139,-7.26957 c 2.63448,-3.99774 4.78965,-7.80967 4.78965,-8.47132 0,-1.78874 -1.72622,-11.50003 -4.89038,-27.49795 -4.56041,-23.06951 -3.7303,-30.88264 4.00469,-37.6729 l 2.29063,-2.01103 h -3.36387 c -2.75605,0 -3.89007,0.40116 -6.28316,2.22811 m 320.59744,6.02266 c -2.14302,6.4273 -2.37746,7.68463 -1.5543,8.30982 31.44185,23.89441 30.85834,23.60613 38.65064,19.06482 l 5.17518,-3.01654 3.07212,-8.33413 c 1.68801,-4.58299 3.28051,-8.8586 3.53753,-9.49942 0.37685,-0.94299 -0.28481,-0.79364 -3.49933,0.78844 -15.56723,7.67073 -30.74372,3.33087 -40.26918,-11.51392 -2.70221,-4.21135 -2.16212,-4.65419 -5.11266,4.20093 M 111.12457,224.2905 c -3.67646,3.70077 -4.7827,5.33321 -5.76911,8.50953 -1.44662,4.66461 -1.54214,3.85012 3.38297,29.30925 5.00847,25.89155 5.03973,25.38793 -2.18816,35.70356 -4.39717,6.27795 -4.38675,6.00877 -0.40464,10.60913 1.77311,2.04749 3.85534,4.48921 4.62641,5.42699 l 1.40494,1.70712 6.52455,-8.06842 c 3.58963,-4.43712 8.41054,-10.04472 10.71333,-12.46213 5.68575,-5.96709 5.59371,-5.55377 5.03104,-22.4009 -0.26744,-8.02154 -0.47063,-19.61013 -0.44979,-25.75262 0.0434,-12.75909 -0.65124,-15.19038 -6.12339,-21.40581 -6.2519,-7.10112 -10.56224,-7.40329 -16.74815,-1.1757 m 9.89537,1.83736 c 8.04585,3.50106 4.53263,20.7181 -4.22871,20.7181 -8.93675,0 -10.22186,-16.26015 -1.63592,-20.70073 2.36183,-1.22086 3.09122,-1.2226 5.86463,-0.0174 m 250.38686,2.28368 c -0.60956,0.60956 -0.32996,0.79712 1.19481,0.79712 1.09582,0 5.24292,0.47584 9.21634,1.05935 6.91009,1.01246 13.61352,0.19797 11.96024,-1.45357 -1.60466,-1.60465 -20.8223,-1.95025 -22.37139,-0.4029 m -257.31084,3.82408 c -3.21625,5.48951 -0.97946,12.41176 3.51149,10.86267 4.84001,-1.67064 6.47419,-12.20336 2.14127,-13.80627 -2.39482,-0.88569 -3.8536,-0.12678 -5.65276,2.9436 m 296.7447,28.24296 c -4.12972,12.09048 -12.95185,38.00808 -19.60318,57.59736 -6.65306,19.58755 -17.76928,52.16516 -24.70542,72.3918 -14.48183,42.24026 -13.40164,37.92124 -9.72692,38.89029 6.91183,1.82173 23.79369,7.63947 27.30344,9.41084 2.49729,1.25907 3.93696,1.66544 4.12278,1.16529 0.67555,-1.80437 6.05914,-17.66162 19.95746,-58.7696 8.13615,-24.06634 16.62484,-49.09825 18.86337,-55.62628 13.99731,-40.83533 21.84344,-64.09761 21.84344,-64.77316 0,-0.42895 -3.74072,-3.40728 -8.30981,-6.62007 -4.57084,-3.21278 -11.3611,-8.13094 -15.08792,-10.9304 -3.72683,-2.79773 -6.85973,-5.00499 -6.96219,-4.90253 -0.10246,0.10246 -3.56532,10.07771 -7.69505,22.16646 M 66.786445,245.99848 c -1.318109,1.46051 -0.0069,5.75349 3.884862,12.71046 2.742152,4.90427 1.967612,4.58299 16.989538,7.06812 8.881172,1.4692 8.026745,1.91725 6.870144,-3.60352 -1.167022,-5.56767 -0.02258,-4.78271 -9.275389,-6.34742 -10.423307,-1.76095 -12.505537,-2.80293 -14.754484,-7.3894 -1.967612,-4.01163 -2.172535,-4.14709 -3.714671,-2.43824 m -9.586246,7.80098 c -3.073851,2.70569 -10.128079,8.73356 -15.680113,13.39817 -13.535364,11.37499 -13.431165,11.2569 -12.986586,14.57735 0.482786,3.61221 2.047497,4.71324 8.177833,5.76217 4.313811,0.73633 5.334954,0.72765 6.43772,-0.0643 1.121869,-0.8058 23.861419,-20.30304 26.398648,-22.63361 0.715496,-0.65819 0.435897,-1.4883 -1.465723,-4.37807 -1.292059,-1.96066 -2.90887,-5.36621 -3.594843,-7.56654 -1.512612,-4.85043 -0.623453,-4.96157 -7.286936,0.90479 M 42.91808,275.64634 c 1.830418,1.83042 2.219425,5.35753 0.797117,7.21226 -2.389615,3.11032 -7.142795,3.55664 -9.258022,0.86832 -4.487475,-5.70486 3.351714,-13.19151 8.460905,-8.08058 m -5.661443,2.5407 c -1.469196,1.4692 -1.00204,3.93523 0.746755,3.93523 1.988452,0 3.188469,-1.20176 3.188469,-3.18847 0,-1.7488 -2.46429,-2.21595 -3.935224,-0.74676 m 88.424443,9.66961 c 2.33404,2.33404 2.21248,5.35406 -0.3178,7.88434 -4.37112,4.37112 -10.77585,0.62693 -8.8586,-5.17866 1.45878,-4.42148 6.09387,-5.78821 9.1764,-2.70568 M 15.397564,295.5187 c -5.350585,11.10754 -14.90731275,32.03404 -14.90731275,32.64187 0,0.29696 1.38410195,0.85789 3.07558795,1.24343 l 3.075587,0.70507 1.5959751,-2.79425 C 21.694616,303.74867 28.55955,290.97048 28.043768,290.4547 c -0.352538,-0.3508 -6.580125,-1.9103 -8.676248,-2.1708 -0.251812,-0.0313 -2.038814,3.22494 -3.969956,7.23484 m 104.457096,-4.52568 c -1.02636,1.91899 -0.30565,3.4837 1.48309,3.21799 1.78353,-0.2657 2.98181,-2.01624 2.40524,-3.51669 -0.59914,-1.56471 -2.98875,-1.38063 -3.88833,0.2987 m -93.879229,12.49685 c -3.442018,6.34394 -8.447011,15.41615 -11.123172,20.16064 -2.676161,4.7445 -4.8660623,8.94196 -4.8660623,9.32575 0,0.60609 6.0435033,8.84297 6.4880833,8.84297 0.09031,0 5.682282,-9.85716 12.425651,-21.90423 13.524944,-24.15664 14.19876,-26.19719 9.039205,-27.33296 -1.008987,-0.22229 -2.139539,-0.51057 -2.512916,-0.64255 -2.389615,-0.84054 -3.393392,0.38727 -9.450789,11.55038 m 65.415715,2.49555 c 0,0.43937 -2.702211,4.33292 -6.005298,8.6502 -12.543743,16.39214 -23.911781,32.85721 -23.015675,33.33479 0.477575,0.25528 2.242,0.65123 3.92133,0.88047 l 3.053012,0.41679 2.775149,-3.89354 c 1.526505,-2.14301 8.3185,-11.49481 15.093128,-20.78409 13.050838,-17.88912 13.373858,-18.47611 10.454567,-18.91721 -3.898755,-0.59046 -6.276213,-0.47237 -6.276213,0.31259 m -4.529155,25.65711 c -7.431078,10.26006 -13.729867,19.01619 -13.999046,19.4573 -0.269179,0.4411 0.331698,2.15864 1.333739,3.81713 l 1.819997,3.01481 1.48309,-1.7818 c 4.14362,-4.98415 29.495079,-39.00664 29.495079,-39.58321 0,-0.36816 -0.96036,-1.88251 -2.13433,-3.36387 -2.65706,-3.35518 -0.943,-5.10919 -17.998529,18.43964 m -84.1488418,4.90079 c 1.837364,2.87414 2.799462,3.69731 5.1074588,4.36591 3.494118,1.01073 3.499327,0.88221 0.1458777,-3.55837 -2.4121945,-3.19542 -3.5583765,-3.93002 -6.6495935,-4.25824 -0.49320595,-0.0538 0.109408,1.4362 1.396257,3.4507 m 61.4179758,18.00547 c 1.705379,2.1517 7.587375,5.06057 7.587375,3.75114 0,-1.18786 -3.959537,-5.06925 -5.678809,-5.56766 -3.740721,-1.0854 -4.006426,-0.83185 -1.908566,1.81652 m 206.500265,66.81371 c -13.86359,5.59893 -27.32775,19.29927 -34.74668,35.35971 -15.50471,33.55881 -6.17896,76.80633 18.14788,84.16794 2.26458,0.68597 1.99887,-0.33865 -2.54244,-9.80506 -10.5605,-22.01364 -10.821,-46.14945 -0.76412,-70.76804 7.4797,-18.31112 28.28985,-39.12821 39.11605,-39.12821 1.93288,0 0.95863,-1.27643 -1.21217,-1.58729 -5.42526,-0.77628 -13.72813,0.0347 -17.99852,1.76095 m 21.02201,2.62406 c -25.88808,8.20215 -44.31903,38.49087 -44.3225,72.83985 -0.002,13.65172 1.84952,21.58989 7.78883,33.38167 1.35284,2.68832 3.66083,7.8774 5.12829,11.53129 1.46572,3.65388 4.40585,10.30695 6.53324,14.784 8.85859,18.64108 22.81943,53.91048 24.06634,60.79973 1.20002,6.62007 -1.78527,5.36795 40.34907,16.92702 31.00248,8.50432 35.04016,9.56888 35.28676,9.31186 0.18061,-0.19103 -23.76937,-71.99931 -25.32193,-75.91891 -0.46542,-1.1757 -1.38584,-1.90683 -2.73868,-2.17774 -3.21799,-0.6443 -7.84266,-3.04086 -10.8783,-5.64061 l -2.79078,-2.38788 5.35058,15.82426 c 16.44076,48.62589 16.41471,45.04841 0.29176,39.64052 -4.88691,-1.63939 -13.65346,-4.11063 -19.48336,-5.49473 -13.16545,-3.12247 -11.90292,-1.84952 -19.69348,-19.86888 -12.99527,-30.05775 -19.04398,-42.01972 -23.74506,-46.95525 -22.11784,-23.22928 -16.00661,-75.7435 11.87513,-102.04664 4.76881,-4.49789 14.07546,-9.88494 17.07985,-9.88494 0.79364,0 1.62028,-0.86832 2.24026,-2.35315 1.25212,-2.99397 1.26254,-2.92624 -0.54357,-3.27356 -0.83879,-0.16151 -1.61507,-0.33691 -1.72274,-0.38727 -0.10941,-0.0504 -2.24548,0.55746 -4.74971,1.34936 m 58.12183,15.20601 c -1.44315,4.08979 -2.6258,7.48665 -2.62927,7.55091 -0.003,0.0625 1.74879,-0.76065 3.89354,-1.83215 9.1573,-4.57084 21.36761,-5.20992 32.39179,-1.69323 6.94829,2.21595 -8.29766,-4.29818 -17.6373,-7.53527 -14.6555,-5.08141 -12.84766,-5.47736 -16.01876,3.50974 m -60.4715,-3.61047 c -2.16907,1.15487 -5.89589,4.03421 -8.28203,6.39778 -33.22191,32.89715 -30.17237,99.83937 4.72365,103.71208 l 4.07069,0.45152 -3.05302,-1.9815 c -20.7372,-13.46069 -23.92567,-56.32441 -6.31094,-84.87476 4.45795,-7.22615 7.95207,-11.75878 10.21317,-13.24882 1.43447,-0.94646 2.36183,-2.58585 3.64868,-6.44466 0.94994,-2.84809 1.96414,-5.71702 2.25416,-6.37694 0.64776,-1.47788 -1.15834,-0.88916 -7.26436,2.3653 m 68.50693,10.70638 c -25.92802,8.00938 -46.41862,49.03226 -40.83012,81.74359 3.44376,20.14849 10.54314,30.17932 24.39283,34.4636 2.98355,0.92216 6.03656,1.91899 6.78331,2.21248 0.97078,0.3838 0.7676,-0.0295 -0.71549,-1.45009 -30.83576,-29.5576 -8.42791,-109.26238 32.23375,-114.65638 2.97486,-0.39421 3.36387,-0.59393 2.30973,-1.18786 -4.72018,-2.65532 -17.3195,-3.2423 -24.17401,-1.12534 m -65.28026,3.00612 c -14.67981,11.19611 -23.88573,46.57318 -18.00894,69.20159 4.40064,16.94612 10.37294,22.69961 28.59897,27.55525 5.64581,1.50393 11.44271,3.13984 12.88238,3.63652 l 2.61712,0.90132 -1.25559,-1.78006 c -15.62107,-22.1543 -10.03604,-66.80502 11.31073,-90.43373 1.30595,-1.44315 2.25415,-2.73 2.10828,-2.85504 -1.58903,-1.38062 -28.93762,-7.64121 -34.11975,-7.8114 -1.12534,-0.0365 -2.89845,0.64429 -4.1332,1.58555 m 82.3219,4.61078 c -34.00687,12.5229 -50.14198,73.59528 -27.3017,103.34564 17.60604,22.93232 50.09682,13.73508 66.37955,-18.79043 22.66834,-45.28112 -1.82174,-98.27292 -39.07785,-84.55521 m -43.20932,6.01572 c -19.05787,22.38006 -25.75956,57.14931 -15.57591,80.8197 1.81652,4.22177 2.25416,3.83102 0.60261,-0.53836 -9.47336,-25.05623 -0.0972,-64.50398 19.89494,-83.70252 1.33895,-1.28512 2.43303,-2.5928 2.43303,-2.90714 0,-1.34936 -3.05475,1.27817 -7.35467,6.32832 m 58.04369,14.24912 c 25.08574,3.23536 26.74076,53.07342 2.31841,69.81115 -19.36005,13.26792 -38.70621,-1.48483 -37.19533,-28.36279 1.38062,-24.56997 17.47232,-43.6921 34.87692,-41.44836 m -12.04012,5.77259 c -12.88586,7.01428 -21.49264,26.74771 -19.08566,43.76503 5.19428,36.72818 45.72223,23.60961 47.41371,-15.34841 1.00725,-23.14766 -12.71567,-36.91226 -28.32805,-28.41662 m 11.22563,10.70637 c 7.72284,3.36561 10.85573,17.49491 6.44988,29.09565 -5.94104,15.64538 -20.68684,18.89984 -27.27739,6.01746 -8.37581,-16.36782 6.45683,-41.37369 20.82751,-35.11311 m -10.89567,4.7966 c -10.27048,7.83398 -12.05575,27.36769 -3.05648,33.43204 8.80475,5.93409 19.77163,-6.93961 18.88942,-22.17341 -0.67729,-11.69452 -8.22473,-17.06074 -15.83294,-11.25863 m 37.36031,48.93154 c -1.09929,1.67759 -1.07324,2.04229 0.56441,7.96944 13.58052,49.11562 15.13828,55.21469 14.30643,56.00313 -1.49698,1.4223 -50.38858,23.34042 -52.71741,23.63392 -2.52507,0.31954 -2.56501,0.28828 -4.19572,-3.40034 -2.01103,-4.54826 -7.06812,-18.99883 -9.54804,-27.28607 -1.00378,-3.35866 -3.51322,-11.48266 -5.57461,-18.05236 l -3.74767,-11.94634 -4.46142,-1.62202 c -2.45561,-0.8909 -4.63336,-1.69844 -4.84002,-1.79222 -0.6495,-0.2987 23.70686,72.63145 24.8322,74.34725 1.62376,2.47819 6.06608,1.65328 16.02918,-2.97312 4.51179,-2.09613 10.81926,-4.89038 14.01815,-6.21022 7.27999,-3.00439 25.55291,-11.24474 30.77151,-13.87575 6.1668,-3.10858 6.1998,-1.95024 -0.76065,-27.77059 -6.68954,-24.81657 -13.28876,-48.78393 -13.4329,-48.78393 -0.0504,0 -0.60956,0.79018 -1.24344,1.75922 m -136.76552,8.24556 c 4.50484,8.95758 8.78565,18.25381 15.38315,33.4112 3.49238,8.02153 6.61485,14.52351 6.93787,14.44883 0.32475,-0.0747 6.05392,-2.63274 12.73477,-5.68749 6.67911,-3.05301 13.41033,-6.09734 14.95767,-6.76421 l 2.81509,-1.21217 -5.08835,-15.14697 c -5.95493,-17.72761 -5.09703,-16.3383 -11.26384,-18.23818 -13.07168,-4.03074 -16.18895,-4.64377 -20.0026,-3.9387 -3.82929,0.70855 -13.1863,-0.0695 -16.42166,-1.36499 -0.93258,-0.37338 -1.92073,-0.69813 -2.19685,-0.72071 -0.27439,-0.0243 0.69118,2.32189 2.14475,5.21339 m 125.27071,6.66348 c -12.38745,12.36487 -27.99636,17.44975 -41.9763,13.67604 -3.64347,-0.98468 -3.90223,-0.97947 -3.57748,0.0695 0.19277,0.62172 2.05966,6.7781 4.1471,13.67951 8.07016,26.67651 13.55099,42.05965 14.98546,42.05965 0.45152,0 5.80384,-2.24373 11.89424,-4.98762 6.09212,-2.74389 16.72383,-7.47971 23.62697,-10.52577 6.9014,-3.04433 12.97964,-5.80906 13.50757,-6.14249 0.79539,-0.50536 0.38207,-2.69874 -2.45908,-13.04911 -1.87904,-6.84236 -5.34363,-19.57192 -7.69678,-28.28637 l -4.28081,-15.8451 -1.34243,1.93809 c -0.73807,1.0663 -3.81192,4.40238 -6.82846,7.41371 m -81.464,35.0749 c -4.47705,2.05618 -10.27742,4.71845 -12.88933,5.91499 l -4.74797,2.17775 9.83632,2.60669 c 5.40963,1.43273 13.18457,3.67647 17.27609,4.98416 4.09152,1.30769 7.52312,2.2941 7.62558,2.19164 0.14588,-0.14588 -5.45826,-17.93254 -6.94482,-22.03969 -0.23097,-0.63735 -0.59567,-0.71549 -1.17571,-0.25008 -0.46194,0.37165 -4.5031,2.35662 -8.98016,4.41454 m 112.70266,1.67759 c 1.97109,8.05801 1.5074,7.73499 7.39635,5.16998 5.89415,-2.56849 5.98098,-2.37399 -2.40004,-5.40963 -5.53988,-2.00582 -5.54682,-2.00582 -4.99631,0.23965 m 6.13034,8.98711 c -2.33405,1.04719 -3.16069,1.76095 -2.88109,2.4886 3.81366,9.93879 1.02983,12.20337 -32.77211,26.65741 -7.97812,3.4125 -16.22021,7.06638 -18.3146,8.12226 -9.02183,4.54305 -16.63873,5.59198 -25.18821,3.47154 -7.86176,-1.95198 -25.15521,-6.66695 -34.92728,-9.52199 -4.85043,-1.41883 -14.42626,-4.03942 -21.28077,-5.82469 -16.90965,-4.40759 -16.85408,-4.36243 -19.40868,-16.06391 -1.25559,-5.75348 -1.47267,-5.97924 -3.59484,-3.72161 -21.9928,23.41163 55.46998,46.38562 119.24457,35.36491 47.53007,-8.21256 72.95794,-29.41519 51.65286,-43.07038 l -2.95576,-1.89294 -3.14853,1.2608 c -1.73317,0.69292 -4.62467,1.92246 -6.42556,2.73 m 12.09569,26.14336 c -20.85877,14.88473 -69.90667,24.15491 -107.18536,20.2579 -29.42908,-3.07733 -54.38111,-11.14402 -63.9361,-20.67122 l -2.88455,-2.87413 v 7.94512 c 0,14.50267 2.11696,17.79707 15.69053,24.42235 11.37498,5.55377 24.93466,8.99753 47.39982,12.03838 36.12556,4.89211 86.18939,-3.42812 107.86091,-17.92558 9.5081,-6.35958 11.51739,-10.28612 11.52607,-22.52421 l 0.007,-8.80302 -2.08744,2.53202 c -1.14792,1.39104 -4.0238,3.91264 -6.39083,5.60239 m -7.59433,30.32866 c -18.76438,9.8728 -43.30482,14.78054 -75.50906,15.10182 -33.79325,0.3369 -54.55477,-3.13116 -77.78232,-12.99527 -3.2944,-1.39973 1.4501,7.05596 5.95841,10.61954 31.75271,25.09965 132.8442,19.46599 149.7278,-8.34107 1.44662,-2.38267 2.63448,-6.89793 1.70711,-6.49156 -0.31954,0.13893 -2.16385,1.08714 -4.10194,2.10654 m -9.39174,18.25208 c -39.9288,20.70247 -123.70253,17.41501 -143.08342,-5.61803 -0.90131,-1.06977 -1.73316,-1.94503 -1.85125,-1.94503 -0.24313,-0.002 0.57135,45.50688 0.97251,54.26996 0.43243,9.50289 4.58647,15.74784 14.40195,21.65415 38.81041,23.35606 128.22821,14.63466 142.81598,-13.92958 1.84257,-3.60873 1.97108,-8.02153 1.5074,-51.56949 l -0.15283,-14.33422 -4.26518,4.15925 c -2.81162,2.74216 -6.337,5.23423 -10.34516,7.31299 m 19.31837,29.90839 c 0.0208,10.43026 0.0365,10.53272 2.23506,15.17649 18.80085,39.69783 -75.10964,69.71216 -142.95838,45.68924 -25.87245,-9.16077 -38.1036,-27.04642 -29.33878,-42.90367 1.99192,-3.60526 2.54418,-5.3419 2.54418,-8.01632 0,-3.74072 -0.34039,-3.85187 -4.82265,-1.5734 -0.97425,0.49494 -9.52199,4.08631 -18.99536,7.97986 -9.47336,3.89528 -21.34503,8.89332 -26.38302,11.10928 -5.03625,2.21595 -10.9495,4.74102 -13.13767,5.61281 -14.27517,5.68229 -11.7171,8.41923 20.26137,21.68715 5.22381,2.16732 17.43412,7.37203 27.13498,11.56428 9.70087,4.19224 21.4527,9.23197 26.11731,11.19785 14.25781,6.0105 33.64391,14.41063 46.12861,19.98524 20.0686,8.96105 25.50948,9.20245 39.58321,1.76616 3.04085,-1.60639 35.14089,-17.80576 71.33244,-35.99879 86.01399,-43.2371 80.63562,-40.19624 78.05324,-44.13494 -1.75054,-2.67269 -3.82235,-3.64347 -20.12418,-9.43516 -8.3567,-2.96618 -24.65506,-8.81692 -36.22107,-12.99701 -11.56602,-4.18182 -21.12101,-7.51443 -21.23041,-7.40676 -0.11115,0.10767 -0.19103,4.92163 -0.17888,10.69769 m 58.35454,15.57766 c 12.72436,3.5549 5.20645,15.05145 -8.24556,12.60626 -9.5272,-1.73143 -12.153,-7.45018 -5.20992,-11.35241 3.07038,-1.72622 9.59493,-2.33404 13.45548,-1.25385 m -11.92723,4.31728 c -2.28889,1.70885 -2.25416,2.41914 0.18755,3.84492 5.74133,3.35345 18.53689,0.0382 13.78371,-3.57053 -3.14679,-2.38962 -10.93388,-2.54244 -13.97126,-0.27439 m -49.7304,7.33904 c -15.70442,25.4105 -87.42761,36.62918 -132.67053,20.75283 -17.27434,-6.06261 -30.86702,-17.58173 -30.86702,-26.16073 0,-4.24434 -1.48829,-0.22402 -1.84431,4.98242 -0.32996,4.80181 -0.18061,5.82469 1.32332,9.06525 21.46139,46.23628 167.801,36.37043 168.05802,-11.32983 0.026,-5.03625 -0.66339,-5.9914 -1.72448,-2.39309 -0.43763,1.47788 -1.46051,3.76504 -2.275,5.08315 m 66.40908,7.96249 c -8.38276,4.33465 -22.4148,11.31593 -31.18309,15.50992 -8.76655,4.19572 -17.92559,8.7023 -20.34994,10.01346 -14.43147,7.80445 -89.14688,44.9911 -92.21379,45.89415 -8.20561,2.41914 -15.87461,1.25386 -27.64729,-4.20266 -13.54404,-6.27448 -60.68684,-26.60531 -106.03917,-45.72744 -10.63344,-4.484 -20.46455,-8.73008 -21.85039,-9.43342 -1.3841,-0.70508 -2.60496,-1.28164 -2.71263,-1.28338 -0.77107,-0.003 0.73807,21.72535 1.65502,23.84232 1.21912,2.81161 5.93757,5.31411 27.31906,14.48704 6.34221,2.72131 20.99423,9.13124 32.56198,14.24391 45.79691,20.24574 72.79122,32.17297 76.99389,34.01902 4.11931,1.80958 4.99978,1.93635 13.34954,1.93635 h 8.94022 l 15.14349,-7.60821 c 16.21847,-8.15005 28.17176,-14.31164 68.7327,-35.43438 14.17792,-7.38419 33.86793,-17.61994 43.75635,-22.74824 23.51756,-12.19641 27.52746,-14.49225 28.50693,-16.32267 0.81101,-1.51608 1.42057,-25.60326 0.63908,-25.23857 -0.19971,0.0938 -7.22094,3.71641 -15.60196,8.0528 M 245.0438,741.14032 c 10.68727,2.59802 12.4899,9.034 3.574,12.75909 -7.04207,2.94187 -18.83732,-0.73981 -18.83732,-5.88026 0,-4.05505 9.41953,-8.2994 15.26332,-6.87883 m -9.3848,4.82786 c -2.95402,1.72622 -2.91929,2.6258 0.15456,4.19572 6.50371,3.31698 19.17423,-0.422 13.485,-3.98038 -3.68688,-2.30799 -9.88842,-2.40524 -13.63956,-0.21534 m 138.13747,48.61373 c 1.78874,0.48105 4.15578,1.74012 5.25681,2.79599 8.04758,7.70721 -11.53476,14.77185 -20.36036,7.34425 -6.66175,-5.60413 4.38501,-13.02132 15.10355,-10.14024 m -11.69105,4.37286 c -2.44345,1.75748 -2.42782,2.60843 0.0781,4.13494 5.30716,3.23709 18.13224,0.35427 14.52351,-3.26315 -2.89845,-2.90366 -11.09365,-3.39339 -14.60166,-0.87179 m 6.96739,22.24808 c 1.23996,1.23996 0.47758,20.57744 -0.81275,20.57744 -2.29583,0 -3.30656,-19.75253 -1.05413,-20.61738 1.32852,-0.51057 1.31637,-0.51057 1.86688,0.0399"
         stroke="none"
         fill="#10110f"
         fill-rule="evenodd"
         inkstitch:fill_method="contour_fill"
         style="stroke-width:1.73664"
         inkstitch:force_lock_stitches="False" /></g></g></svg>
